/* XPM */
static char *result[] = {
/* columns rows colors chars-per-pixel */
"16 16 224 2 ",
"   c #E17432",
".  c #F9A93F",
"X  c #E29041",
"o  c #E99B5C",
"O  c #E99B5D",
"+  c #ED995F",
"@  c #EF9E5F",
"#  c #F09A59",
"$  c #F5AF46",
"%  c #F2BA4E",
"&  c #FBBD4A",
"*  c #DD9E76",
"=  c #EEA86D",
"-  c #E5A574",
";  c #E9A470",
":  c #EBAD76",
">  c #EAAC77",
",  c #E1A47B",
"<  c #E1A97B",
"1  c #E4AB7C",
"2  c #EAAB79",
"3  c #EEB07A",
"4  c #EDC76E",
"5  c #F8DD6E",
"6  c #ECC47D",
"7  c #EFC97B",
"8  c #F0C770",
"9  c #F1D374",
"0  c #F5D775",
"q  c #F8DD70",
"w  c #57A3BF",
"e  c #63A5BB",
"r  c #67A7B8",
"t  c #69A7B8",
"y  c #6AACBD",
"u  c #72AEBA",
"i  c #33A0CC",
"p  c #33A3CE",
"a  c #4FA5C2",
"s  c #49A3C4",
"d  c #59AAC4",
"f  c #5BABC5",
"g  c #5DADC6",
"h  c #98898B",
"j  c #AD988D",
"k  c #B79D8D",
"l  c #8DB2B2",
"z  c #A5B0A5",
"x  c #A6B4A7",
"c  c #BDBFAB",
"v  c #A9B8BE",
"b  c #C9AC8D",
"n  c #C8AE8D",
"m  c #DCA782",
"M  c #D9A687",
"N  c #D9A787",
"B  c #D7A988",
"V  c #D7AA88",
"C  c #DAA888",
"Z  c #DAA988",
"A  c #D8AA89",
"S  c #D8AB89",
"D  c #DAAA89",
"F  c #D9AB8A",
"G  c #DCA889",
"H  c #DCAB89",
"J  c #DCAB8B",
"K  c #D9AC88",
"L  c #D9AC8A",
"P  c #DEAC8B",
"I  c #D9AE8C",
"U  c #DDAE8C",
"Y  c #DFAE8C",
"T  c #DDAF8E",
"R  c #D9B18B",
"E  c #DAB08D",
"W  c #DAB18E",
"Q  c #DFB28E",
"!  c #CCB395",
"~  c #C4BA9E",
"^  c #D1B394",
"/  c #DEB290",
"(  c #DDB591",
")  c #DCB692",
"_  c #DEB692",
"`  c #DDB893",
"'  c #DEB994",
"]  c #DFBD94",
"[  c #D5B19B",
"{  c #DEBB9E",
"}  c #E0AE8E",
"|  c #E6B085",
" . c #E6B285",
".. c #E6B087",
"X. c #EBB280",
"o. c #EDB580",
"O. c #E7B189",
"+. c #E7B289",
"@. c #E6B389",
"#. c #E7B389",
"$. c #E5B28B",
"%. c #E2B68A",
"&. c #E7B48A",
"*. c #E7B58A",
"=. c #E7B48B",
"-. c #E7B68B",
";. c #E7B28C",
":. c #E7B38D",
">. c #E6B38F",
",. c #E7B48C",
"<. c #E7B48D",
"1. c #E7B58D",
"2. c #E7B68C",
"3. c #E7B78C",
"4. c #E7B78E",
"5. c #E9B78B",
"6. c #E8B68C",
"7. c #E9B48F",
"8. c #E7B88B",
"9. c #E7B88D",
"0. c #E7B98E",
"q. c #E7BA8E",
"w. c #E9BC8F",
"e. c #E3B191",
"r. c #E2B291",
"t. c #E2B490",
"y. c #E0B692",
"u. c #E1B792",
"i. c #E7B790",
"p. c #E3B694",
"a. c #E3B795",
"s. c #E6B796",
"d. c #E9B790",
"f. c #E7BB90",
"g. c #E7BC90",
"h. c #E7BD91",
"j. c #E7BE91",
"k. c #E1B995",
"l. c #E3BB96",
"z. c #E4B896",
"x. c #E6B996",
"c. c #E6BA96",
"v. c #E9B890",
"b. c #E8B892",
"n. c #E9BC90",
"m. c #E9BD90",
"M. c #E8BD91",
"N. c #E8BC92",
"B. c #E8BC93",
"V. c #EABC93",
"C. c #E8BE93",
"Z. c #E8BF93",
"A. c #E8BA94",
"S. c #E8BC94",
"D. c #E8BD95",
"F. c #EABF95",
"G. c #E8BE96",
"H. c #E8BE97",
"J. c #E0BF99",
"K. c #E7BF9B",
"L. c #E8BE98",
"P. c #E8BF98",
"I. c #EDC989",
"U. c #E7C093",
"Y. c #E8C094",
"T. c #E8C095",
"R. c #E8C096",
"E. c #E8C396",
"W. c #EAC495",
"Q. c #E9C697",
"!. c #E3C298",
"~. c #E1C19A",
"^. c #E7C299",
"/. c #E7C19A",
"(. c #E4C49B",
"). c #E3C69E",
"_. c #E7C59F",
"`. c #E4C69F",
"'. c #E8C198",
"]. c #E8C29A",
"[. c #E8C39A",
"{. c #EAC79A",
"}. c #E9C19D",
"|. c #E9C39C",
" X c #E9C49C",
".X c #E9C59D",
"XX c #EBC79C",
"oX c #E9C49E",
"OX c #E9C99D",
"+X c #E9CA9E",
"@X c #E9CA9F",
"#X c #ECD295",
"$X c #D2C3A4",
"%X c #E5C7A0",
"&X c #E6C7A0",
"*X c #E5CBA3",
"=X c #E9C8A1",
"-X c #EACBA0",
";X c #E9C8A2",
":X c #E9C9A3",
">X c #E9CAA3",
",X c #EACBA3",
"<X c #E9CDA1",
"1X c #E9CBA4",
"2X c #E9CCA4",
"3X c #E9CDA4",
"4X c #E9CEA5",
"5X c #EACFA4",
"6X c #EACEA5",
"7X c #E9CEA6",
"8X c #EACEA6",
"9X c #EACFA7",
"0X c #E9D0A4",
"qX c #EAD0A5",
"wX c #EAD0A7",
"eX c #ECD3A8",
"rX c #EAD4AA",
"tX c #86BDDC",
"yX c #ADC1C5",
"uX c #C2C9D5",
"iX c #C2C9D6",
"pX c #C3CAD6",
"aX c #C6CCD8",
"sX c #C6CDD8",
/* pixels */
"n {.i.6X<X-.8XQ.n.rXV K.2X}.2X0X",
"] v. XZ.2.A.I.5 q #XB c.qXwX3X0.",
"b XX&.G.T.f.0 % X 4 } :.-.|.=X1X",
"{.w.L.T.N./.9 .   8 :.O.+.*.h.Y.",
"{.F.3.E.).F 6 & $ 7 @.;.|.9X.XD.",
"t.m.H.) Z x.+ o O = @X&.1.oX:X;X",
"P 6._ C <.> , iXuX* < %X'...1.=.",
"{.y.G >.j.3 - uXpX2 ; S 7X,XS.].",
"Y J a.4.W.@ [ aXsX{ # m ' J.*X8X",
"P ( r.,.o.1 v tXtXyX: X./ T A &X",
"{.H $.g.5X` w p i f R.g.+X-Xk.B ",
"V.7.q.4X`.E e a d g 1XP.|  .[.s.",
"d.5.OX~.N Q ~ r c s ! 9.C.C.b.O.",
"{.(.W L _.M.^ y !.u x 8.3.0.U.%.",
"t.U l.^.Z.B.$Xt 3.l z u.K K I D ",
"P eXM.#.G.Z.R h &.j k M p.e.z.>X"
};
