/* XPM */
static char *result[] = {
/* columns rows colors chars-per-pixel */
"16 16 207 2 ",
"   c red",
".  c #FC130E",
"X  c #FC2019",
"o  c #F52F25",
"O  c #F92B21",
"+  c #F92D2C",
"@  c #F8362A",
"#  c #F23A2E",
"$  c #F23B2F",
"%  c #F93A2D",
"&  c #F83B2F",
"*  c #F53131",
"=  c #F13C32",
"-  c #EF493B",
";  c #F54033",
":  c #F74336",
">  c #F64838",
",  c #F35040",
"<  c #F45644",
"1  c #EC8966",
"2  c #ED8F6D",
"3  c #009EFB",
"4  c #009CFD",
"5  c #40B9F1",
"6  c #49BBF0",
"7  c #DD9E9E",
"8  c #C9AC8D",
"9  c #C8AE8D",
"0  c #D9A687",
"q  c #D7A988",
"w  c #D7AA88",
"e  c #DAA888",
"r  c #D8AA89",
"t  c #DAAA89",
"y  c #DCA889",
"u  c #DCAB89",
"i  c #DCAB8B",
"p  c #DEAC8B",
"a  c #D9AE8C",
"s  c #DDAE8C",
"d  c #DFAE8C",
"f  c #DDAF8E",
"g  c #D9AD90",
"h  c #DEB290",
"j  c #DDB591",
"k  c #DDB691",
"l  c #DCB692",
"z  c #DEB692",
"x  c #DFBD94",
"c  c #DDBB98",
"v  c #E0AE8E",
"b  c #E6B087",
"n  c #E7B189",
"m  c #E7B289",
"M  c #E7B389",
"N  c #E5B28B",
"B  c #E2B68A",
"V  c #E7B48A",
"C  c #E7B58A",
"Z  c #E7B48B",
"A  c #E7B68B",
"S  c #E7B28C",
"D  c #E7B38D",
"F  c #E6B08F",
"G  c #E7B48C",
"H  c #E7B58D",
"J  c #E7B68C",
"K  c #E7B78C",
"L  c #E7B68D",
"P  c #E7B78F",
"I  c #E9B78B",
"U  c #E8B68C",
"Y  c #E9B48F",
"T  c #E7B88B",
"R  c #E7BA8C",
"E  c #E7B98E",
"W  c #E6B88F",
"Q  c #E9BC8F",
"!  c #E3B191",
"~  c #E2B291",
"^  c #E2B490",
"/  c #E0B692",
"(  c #E1B792",
")  c #E6B490",
"_  c #E7B790",
"`  c #E3B694",
"'  c #E3B795",
"]  c #E6B796",
"[  c #E9B790",
"{  c #E7BB90",
"}  c #E7BD91",
"|  c #E1B995",
" . c #E3B996",
".. c #E4B896",
"X. c #E4BB96",
"o. c #E6BA96",
"O. c #E9B890",
"+. c #E8B892",
"@. c #E8BA92",
"#. c #E9BD90",
"$. c #E8BD91",
"%. c #E8BC92",
"&. c #E8BC93",
"*. c #EABC93",
"=. c #E8BF92",
"-. c #E8BF93",
";. c #E8BA94",
":. c #E8BC94",
">. c #E8BD95",
",. c #EABF95",
"<. c #E9BD97",
"1. c #E8BE96",
"2. c #E8BE97",
"3. c #E0BF99",
"4. c #E6BE9B",
"5. c #E7BF9B",
"6. c #E8BE98",
"7. c #D8AFAF",
"8. c #E7C093",
"9. c #E8C094",
"0. c #E8C095",
"q. c #E8C295",
"w. c #E8C396",
"e. c #E7C199",
"r. c #E4C49B",
"t. c #E7C29D",
"y. c #E3C69E",
"u. c #E6C49D",
"i. c #E6C49E",
"p. c #E5C69E",
"a. c #E8C29A",
"s. c #E8C39A",
"d. c #E8C599",
"f. c #EAC79A",
"g. c #E9C19D",
"h. c #E9C39C",
"j. c #E9C49C",
"k. c #E9C59D",
"l. c #EBC79C",
"z. c #E9C49E",
"x. c #E9C89E",
"c. c #DAC4B4",
"v. c #D1CDBE",
"b. c #D8CDBF",
"n. c #E6C7A0",
"m. c #E5CBA3",
"M. c #E7CCA3",
"N. c #E9C8A1",
"B. c #EACBA0",
"V. c #E9C8A2",
"C. c #E9C9A3",
"Z. c #E9CAA3",
"A. c #EACBA3",
"S. c #E9CDA1",
"D. c #E9CBA4",
"F. c #E9CCA4",
"G. c #E9CDA4",
"H. c #EACEA5",
"J. c #EACEA6",
"K. c #EACFA7",
"L. c #E7CEA9",
"P. c #E9D0A4",
"I. c #EAD0A5",
"U. c #EAD0A7",
"Y. c #ECD3A8",
"T. c #EAD4AA",
"R. c #87C1DE",
"E. c #8CC2DD",
"W. c #BDCDD5",
"Q. c #B0CBD8",
"!. c #BDD4DB",
"~. c #D4CEC0",
"^. c #D1CFCF",
"/. c #D2CECE",
"(. c #D2CFCF",
"). c #DACFC9",
"_. c #D4D7C6",
"`. c #D5D7C7",
"'. c #D2D0CE",
"]. c #DDD2CB",
"[. c #DFD4CE",
"{. c #C8CFD3",
"}. c #CBD0D2",
"|. c #CED0D1",
" X c #CFD1D1",
".X c #C4D5DA",
"XX c #D1D0D0",
"oX c #D1D1D0",
"OX c gray82",
"+X c #D1D3D2",
"@X c #D1D3D3",
"#X c #D4D1D0",
"$X c #D5D2D0",
"%X c #D7D2D0",
"&X c #D1D5D3",
"*X c #D0D6D5",
"=X c #E5D5CD",
"-X c #F2D8CB",
";X c #F0D8CC",
":X c #E2E4DC",
">X c #E3E4DC",
",X c #CFE2E1",
"<X c #CBEAEA",
"1X c #CBEDED",
"2X c #D0E2E1",
"3X c #C9F7F6",
"4X c #C8FBFB",
/* pixels */
"9 f._ H.S.A J.d.@.T.w 5.F.g.F.P.",
"x O.j.-.J ;.9.> : M.q o.I.U.G.E ",
"8 l.V 1.0.{ <     - v D A h.N.D.",
"f.Q 6.0.%.4.* + + * F n m C } 9.",
"f.,.K w.y.v.,X:X>X2X_.S h.K.k.>.",
"^ #.2.l g )..X6 5 !.]. .H z.C.V.",
"p U z e c.[.W.3 4 Q.=Xb.e.b H Z ",
"f./ y ) OX$X}.E.R.{.%XOXL.A.:.a.",
"d i ' P '. X#X;X-X$X|.XXc 3.m.J.",
"p j ~ G &X^.OXOXOXOXXX@Xh f r n.",
"f.u N L 3XXXOXOXOXOX/.4X<.B.| q ",
"*.Y 2 X 7 1X(.OXOX^.<X7.. 1 s.] ",
"[ I %   = ~.*XoXoX+X`.,   @ +.n ",
"f.r.o   t.$.X.i.u.p.=.T   O 8.B ",
"^ s ; & -.&.x.A K q.W ( # $ a t ",
"p Y.$.M 1.-.R &.V -.k 0 ` ! ..Z."
};
