/* XPM */
static char *result[] = {
/* columns rows colors chars-per-pixel */
"16 16 210 2 ",
"   c #A7471E",
".  c #A9491E",
"X  c #AC4B1D",
"o  c #AC4B1F",
"O  c #AD4C1D",
"+  c #AF4E1C",
"@  c #AF4F1E",
"#  c #B2511D",
"$  c #B3521C",
"%  c #B2531E",
"&  c #B6541C",
"*  c #B7551C",
"=  c #BA571B",
"-  c #B9571C",
";  c #9D5636",
":  c #A54620",
">  c #A64720",
",  c #A74820",
"<  c #A94920",
"1  c #A94A20",
"2  c #A84A21",
"3  c #AA4B20",
"4  c #AC5626",
"5  c #A3522D",
"6  c #AD5828",
"7  c #A85532",
"8  c #AC5931",
"9  c #B15D30",
"0  c #B6612E",
"q  c #BB652D",
"w  c #BC662D",
"e  c #A8633A",
"r  c #AC6739",
"t  c #A96A3F",
"y  c #B26736",
"u  c #9B624A",
"i  c #A2694F",
"p  c #AF754C",
"a  c #AF744D",
"s  c #B27952",
"d  c #BA7F5A",
"f  c #A5836D",
"g  c #A5866F",
"h  c #AA8770",
"j  c #AB8971",
"k  c #B28C73",
"l  c #B38C73",
"z  c #B38D73",
"x  c #B18F75",
"c  c #A99275",
"v  c #A9967B",
"b  c #B09075",
"n  c #B59275",
"m  c #B39478",
"M  c #B39579",
"N  c #B3957A",
"B  c #B39C7E",
"V  c #C4865C",
"C  c #C68D65",
"Z  c #C68969",
"A  c #C0A07E",
"S  c #DCA375",
"D  c #D5A07A",
"F  c #B49E80",
"G  c #B49F80",
"H  c #B49F81",
"J  c #B6A083",
"K  c #B5A384",
"L  c #B4A386",
"P  c #B5A484",
"I  c #B5A487",
"U  c #BFA487",
"Y  c #B1A28A",
"T  c #B5A68C",
"R  c #B5A68E",
"E  c #B2A692",
"W  c #B3A793",
"Q  c #B3AFA9",
"!  c #B3B0AE",
"~  c #C9AC8D",
"^  c #C8AE8D",
"/  c #D9A687",
"(  c #D9A787",
")  c #D0A987",
"_  c #DCAE83",
"`  c #DCA884",
"'  c #DDAB87",
"]  c #D7A988",
"[  c #D8AA89",
"{  c #DAAA89",
"}  c #DCA889",
"|  c #DCAB89",
" . c #DCAB8B",
".. c #D9AC88",
"X. c #D9AC8A",
"o. c #DEAC8B",
"O. c #D9AE8C",
"+. c #DDAE8C",
"@. c #DFAE8C",
"#. c #DDAF8E",
"$. c #DAB18E",
"%. c #DFB28C",
"&. c #DDB68F",
"*. c #DDB78F",
"=. c #DDB591",
"-. c #DDB691",
";. c #DEB692",
":. c #DDBD94",
">. c #DFBD94",
",. c #DDBF9A",
"<. c #E3AD80",
"1. c #E6B281",
"2. c #E6B085",
"3. c #E6B285",
"4. c #E8B387",
"5. c #E7B189",
"6. c #E7B389",
"7. c #E5B28B",
"8. c #E2B68A",
"9. c #E5B48B",
"0. c #E7B48A",
"q. c #E7B58A",
"w. c #E7B48B",
"e. c #E7B48C",
"r. c #E6B58C",
"t. c #E7B58D",
"y. c #E7B78C",
"u. c #E9B78B",
"i. c #E8B68C",
"p. c #E9B48F",
"a. c #E7B88B",
"s. c #E7B88D",
"d. c #E7BA8C",
"f. c #E7B98E",
"g. c #E6B88F",
"h. c #E7BA8E",
"j. c #E9BC8F",
"k. c #E3B191",
"l. c #E2B291",
"z. c #E2B490",
"x. c #E0B692",
"c. c #E1B792",
"v. c #E7B790",
"b. c #E3B694",
"n. c #E3B795",
"m. c #E6B796",
"M. c #E9B790",
"N. c #E7BC90",
"B. c #E7BD91",
"V. c #E1B995",
"C. c #E3BB96",
"Z. c #E4B896",
"A. c #E7BE94",
"S. c #E9B890",
"D. c #E8B892",
"F. c #E9BD90",
"G. c #E8BD91",
"H. c #E8BC93",
"J. c #EABC93",
"K. c #E8BE93",
"L. c #E8BF93",
"P. c #E8BC94",
"I. c #E8BD95",
"U. c #EABF95",
"Y. c #E8BD96",
"T. c #E8BE96",
"R. c #E8BE97",
"E. c #E0BE98",
"W. c #E7BF9B",
"Q. c #E8BE98",
"!. c #E7C093",
"~. c #E8C094",
"^. c #E1C19A",
"/. c #E7C299",
"(. c #E4C49B",
"). c #E5C49D",
"_. c #E7C69C",
"`. c #E5C49E",
"'. c #E7C59F",
"]. c #E4C69F",
"[. c #E8C29A",
"{. c #E8C39A",
"}. c #EAC79A",
"|. c #E9C19D",
" X c #E9C39C",
".X c #E9C49C",
"XX c #E9C59D",
"oX c #E9C79D",
"OX c #EBC79C",
"+X c #E9C99D",
"@X c #DEC9A1",
"#X c #E6C7A0",
"$X c #E5CBA3",
"%X c #E6CCA5",
"&X c #E9C8A1",
"*X c #EACBA0",
"=X c #E9C8A2",
"-X c #E9C9A3",
";X c #E9CAA3",
":X c #E9CDA1",
">X c #E9CBA4",
",X c #E9CCA4",
"<X c #E9CDA4",
"1X c #E9CEA5",
"2X c #EACEA5",
"3X c #EACEA6",
"4X c #E9D0A4",
"5X c #EAD0A5",
"6X c #EAD0A7",
"7X c #ECD3A8",
/* pixels */
"^ }.v.2X:X9.,.:.&.@X) W.,X|.,X4X",
">.S..XL.r.x z B L W E U 5X6X<Xf.",
"~ OX0.Y.b k z F R ! ! Y A  X&X>X",
"}.j.Q.A.h z z F T Q Q T c q.B.~.",
"}.U.y.*.j z z G P I I K v %XXXI.",
"z.F.R.g z z z H P P P P P J -X=X",
"o.i.;.f z l l m N N M M N n t.w.",
"}.x.} ` y 8 8 w 9 7 q 0 u `.P.[.",
"@. .n.4.t X X O . + X   a E.$X3X",
"o.=.l.e._ % $ > @ * , 5 ' #.[ #X",
"}.| 7.N.).i < = o , & d _.*XV.] ",
"J.p.h.1X].C 2 # < o 4 <.2.3.{.m.",
"M.u.+X^.( %.p : # - V s.K.K.D.5.",
"}.(.$.X.'.G.Z 6 3 ; D a.y.f.!.8.",
"z.+.C./.L.H.oXr 1 s g.c.....O.{ ",
"o.7XG.6.T.L.d.S e 1.-./ b.k.Z.;X"
};
