/* XPM */
static char *result[] = {
/* columns rows colors chars-per-pixel */
"16 16 209 2 ",
"   c #C9AC8D",
".  c #C8AE8D",
"X  c #D7A786",
"o  c #D9A687",
"O  c #D9A787",
"+  c #D9A887",
"@  c #DAA887",
"#  c #D7A988",
"$  c #D7AA88",
"%  c #D9A888",
"&  c #D9A988",
"*  c #DAA888",
"=  c #DAA988",
"-  c #D8AA89",
";  c #D8AB89",
":  c #DAAA89",
">  c #D9AB8A",
",  c #DAAB8A",
"<  c #DCA889",
"1  c #DCAB89",
"2  c #DCAB8B",
"3  c #D9AC88",
"4  c #D9AC8A",
"5  c #DEAC8B",
"6  c #D9AE8C",
"7  c #DDAE8C",
"8  c #DFAE8C",
"9  c #DDAF8E",
"0  c #DAB08D",
"q  c #DAB18E",
"w  c #DFB08E",
"e  c #DFB28E",
"r  c #DBB390",
"t  c #DEB290",
"y  c #DFB291",
"u  c #DCB591",
"i  c #DDB591",
"p  c #DDB691",
"a  c #DCB692",
"s  c #DCB792",
"d  c #DDB793",
"f  c #DEB692",
"g  c #DDB893",
"h  c #DEB994",
"j  c #DEBA95",
"k  c #DFBD94",
"l  c #DFBC97",
"z  c #E1AC8B",
"x  c #E0AE8E",
"c  c #E1AE8E",
"v  c #E6B085",
"b  c #E6B285",
"n  c #E6B087",
"m  c #E7B189",
"M  c #E7B289",
"N  c #E6B389",
"B  c #E7B389",
"V  c #E5B28B",
"C  c #E2B68A",
"Z  c #E7B48A",
"A  c #E7B58A",
"S  c #E7B48B",
"D  c #E7B68B",
"F  c #E7B28C",
"G  c #E7B38D",
"H  c #E6B38F",
"J  c #E7B48C",
"K  c #E7B48D",
"L  c #E7B58D",
"P  c #E7B68C",
"I  c #E7B78C",
"U  c #E7B68D",
"Y  c #E7B78E",
"T  c #E9B78B",
"R  c #E8B68C",
"E  c #E9B48F",
"W  c #E7B88B",
"Q  c #E7B88C",
"!  c #E7B98C",
"~  c #E7B88D",
"^  c #E7BA8C",
"/  c #E7BA8D",
"(  c #E7B98E",
")  c #E6B88F",
"_  c #E7BA8E",
"`  c #E7BA8F",
"'  c #E7BC8E",
"]  c #E9BC8F",
"[  c #E3B191",
"{  c #E1B391",
"}  c #E2B291",
"|  c #E6B291",
" . c #E1B590",
".. c #E2B490",
"X. c #E0B692",
"o. c #E1B792",
"O. c #E7B790",
"+. c #E3B694",
"@. c #E3B795",
"#. c #E6B796",
"$. c #E9B790",
"%. c #E7BB90",
"&. c #E7BA92",
"*. c #E7BC90",
"=. c #E7BD91",
"-. c #E7BE91",
";. c #E1B995",
":. c #E2B995",
">. c #E3BB96",
",. c #E4B896",
"<. c #E6B996",
"1. c #E6BA96",
"2. c #E7BD95",
"3. c #E9B890",
"4. c #E8B892",
"5. c #E8BA92",
"6. c #E9BD90",
"7. c #E8BD91",
"8. c #E8BC92",
"9. c #E8BC93",
"0. c #EABC93",
"q. c #E8BF92",
"w. c #E8BE93",
"e. c #E8BF93",
"r. c #E8BA94",
"t. c #E8BC94",
"y. c #E8BD95",
"u. c #EABF95",
"i. c #E8BE96",
"p. c #E8BE97",
"a. c #E8BF97",
"s. c #E0BF99",
"d. c #E7BF9B",
"f. c #E8BE98",
"g. c #E8BF98",
"h. c #E7C093",
"j. c #E8C094",
"k. c #E8C095",
"l. c #E8C295",
"z. c #E8C096",
"x. c #E8C196",
"c. c #E8C396",
"v. c #E8C397",
"b. c #E8C497",
"n. c #E1C19A",
"m. c #E3C09A",
"M. c #E7C299",
"N. c #E7C19A",
"B. c #E4C49B",
"V. c #E3C69E",
"C. c #E7C59F",
"Z. c #E4C69F",
"A. c #E7C69F",
"S. c #E8C198",
"D. c #E8C298",
"F. c #E8C29A",
"G. c #E8C39A",
"H. c #E8C599",
"J. c #E8C699",
"K. c #E9C69A",
"L. c #E9C69B",
"P. c #EAC79A",
"I. c #E9C19C",
"U. c #E9C19D",
"Y. c #E9C39C",
"T. c #E9C49C",
"R. c #E9C59D",
"E. c #EBC79C",
"W. c #E9C49E",
"Q. c #E9C69F",
"!. c #E9C99D",
"~. c #E9C89E",
"^. c #E9CA9E",
"/. c #E9CA9F",
"(. c #E9CB9F",
"). c #E5C7A0",
"_. c #E6C7A0",
"`. c #E8C5A0",
"'. c #E8C7A0",
"]. c #E5C8A1",
"[. c #E6CAA0",
"{. c #E5CBA3",
"}. c #E7CCA3",
"|. c #E9C8A0",
" X c #E9C8A1",
".X c #EACBA0",
"XX c #E9C8A2",
"oX c #E9C9A3",
"OX c #E9CAA3",
"+X c #E9CBA3",
"@X c #EACBA3",
"#X c #E9CDA1",
"$X c #E9CBA4",
"%X c #E9CCA4",
"&X c #E9CDA4",
"*X c #E9CCA5",
"=X c #EACDA4",
"-X c #E9CEA5",
";X c #EACEA5",
":X c #EACFA5",
">X c #E9CEA6",
",X c #EACEA6",
"<X c #EACFA7",
"1X c #E9D0A4",
"2X c #EAD0A5",
"3X c #EAD0A7",
"4X c #E8D1A8",
"5X c #ECD3A8",
"6X c #EAD4AA",
/* pixels */
". P.O.;X#XD ,XH.5.6X$ d.%XU.%X1X",
"k 3.T.e.P r.j.8.I.}.# 1.2X3X&X( ",
"  E.Z i.k.%.2.m.r & x G D Y. X$X",
"P.] f.k.8.N.d @ z | G m M A =.j.",
"P.u.I c.V.> c L / / N F Y.<XR.y.",
"..6.p.a = <.G 7.,X4X/.Z L W.oXXX",
"5 R f * K ! J.[.s X u ).S.n L S ",
"P.X.< H -.+Xl % { '.:.; >X@Xt.F.",
"8 2 @.Y (.].+ `.L.Q x., h s.{.,X",
"5 i } J /.j w =Xa.Q.' A.t 9 - _.",
"P.1 V *.:Xg y K.&.XXz.*.^..X;.# ",
"0.E _ -XZ.0  .7.R.*X$Xg.v b G.#.",
"$.T !.n.O e h.Q |.` D ~ w.w.4.m ",
"P.B.q 4 C.7.U D.v.b.q.W I ( h.C ",
"..7 >.M.e.9.~.D I l.) o.3 3 6 : ",
"5 5X7.B i.e.^ 9.Z e.p o +.[ ,.OX"
};
