/* XPM */
static char *result[] = {
/* columns rows colors chars-per-pixel */
"16 16 141 2 ",
"   c #985C48",
".  c #B86F50",
"X  c #B76F50",
"o  c #B76F50",
"O  c #B76E50",
"+  c #BB7354",
"@  c #B17C60",
"#  c #A5644B",
"$  c #B86F50",
"%  c #B76F50",
"&  c #B76E4F",
"*  c #BE7C5C",
"=  c #C18160",
"-  c #4B2E34",
";  c #7A463D",
":  c #864B3F",
">  c #854B3F",
",  c #854B3F",
"<  c #8D5243",
"1  c #906151",
"2  c #573537",
"3  c #834A3F",
"4  c #854B3F",
"5  c #844A3E",
"6  c #995E4C",
"7  c #BE7A5A",
"8  c #3D2631",
"9  c #613636",
"0  c #733E39",
"q  c #723D39",
"w  c #713D38",
"e  c #7A423B",
"r  c #865042",
"t  c #432932",
"y  c #6E3B38",
"u  c #723D39",
"i  c #703C38",
"p  c #874C3F",
"a  c #B86E4F",
"s  c #3E2731",
"d  c #633737",
"f  c #743E39",
"g  c #733E39",
"h  c #733E39",
"j  c #7B433B",
"k  c #865143",
"l  c #442A32",
"z  c #6F3C38",
"x  c #733E39",
"c  c #723D39",
"v  c #884D40",
"b  c #B86F50",
"n  c #643737",
"m  c #753F39",
"M  c #743E39",
"N  c #743E39",
"B  c #7C443C",
"V  c #875143",
"C  c #442A32",
"Z  c #703D39",
"A  c #743F39",
"S  c #733D39",
"D  c #894D40",
"F  c #3E2731",
"G  c #593335",
"H  c #663837",
"J  c #653837",
"K  c #653837",
"L  c #6E3E3A",
"P  c #865143",
"I  c #432932",
"U  c #623736",
"Y  c #653837",
"T  c #633736",
"R  c #7F493F",
"E  c #B96F50",
"W  c #3D2631",
"Q  c #3C2630",
"!  c #3C2630",
"~  c #3C2630",
"^  c #3C2530",
"/  c #402831",
"(  c #563436",
")  c #3C2631",
"_  c #3C2630",
"`  c #3B2530",
"'  c #492D33",
"]  c #985B47",
"[  c #513236",
"{  c #6D433D",
"}  c #6D433D",
"|  c #6D433D",
" . c #6D433D",
".. c #704741",
"X. c #664E4B",
"o. c #5D3939",
"O. c #6E433D",
"+. c #6D433D",
"@. c #6D423C",
"#. c #724E47",
"$. c #A06C56",
"%. c #4C2F34",
"&. c #7B473E",
"*. c #874C40",
"=. c #874C3F",
"-. c #864B3F",
";. c #8E5344",
":. c #916251",
">. c #583637",
",. c #844B3F",
"<. c #874C3F",
"1. c #854A3E",
"2. c #9A5F4C",
"3. c #BE7B5A",
"4. c #3E2731",
"5. c #593335",
"6. c #663837",
"7. c #653837",
"8. c #653837",
"9. c #6E3E3A",
"0. c #855043",
"q. c #422932",
"w. c #623736",
"e. c #653837",
"r. c #633736",
"t. c #7F493F",
"y. c #B96F50",
"u. c #3E2731",
"i. c #3E2731",
"p. c #3F2731",
"a. c #3E2731",
"s. c #3E2731",
"d. c #442A32",
"f. c #5B3838",
"g. c #3E2731",
"h. c #3E2731",
"j. c #3F2731",
"k. c #3D2731",
"l. c #4E3035",
"z. c #9C5E49",
"x. c white",
/* pixels */
"  . X o o O + @ # $ % o o & * = ",
"- ; : > > , < 1 2 3 4 > > 5 6 7 ",
"8 9 0 q q w e r t y u q q i p a ",
"s d f g g h j k l z x g g c v b ",
"s d f g g h j k l z x g g c v b ",
"s n m M M N B V C Z A M M S D b ",
"F G H J J K L P I U Y J J T R E ",
"W Q ! ~ ~ ^ / ( ) _ ~ ~ ~ ` ' ] ",
"[ { } | |  ...X.o.O.+.| | @.#.$.",
"%.&.*.=.=.-.;.:.>.,.<.=.=.1.2.3.",
"8 9 0 q q w e r t y u q q i p a ",
"s d f g g h j k l z x g g c v b ",
"s d f g g h j k l z x g g c v b ",
"s n m M M N B V C Z A M M S D b ",
"4.5.6.7.7.8.9.0.q.w.e.7.7.r.t.y.",
"u.i.p.a.a.s.d.f.g.h.j.a.a.k.l.z."
};
