/* XPM */
static char *character1[] = {
/* columns rows colors chars-per-pixel */
"32 32 225 2 ",
"   c #0B0706",
".  c #231407",
"X  c #281713",
"o  c #392000",
"O  c #3A291B",
"+  c #313332",
"@  c #462808",
"#  c #5A360D",
"$  c #452A18",
"%  c #532D16",
"&  c #4E3319",
"*  c #58351A",
"=  c #62390B",
"-  c #501E2A",
";  c #462A23",
":  c #483524",
">  c #5A3923",
",  c #4D3E36",
"<  c #6B292B",
"1  c #6B3427",
"2  c #764E08",
"3  c #75490F",
"4  c #674617",
"5  c #764B16",
"6  c #7E5519",
"7  c #5C442B",
"8  c #5A4536",
"9  c #6C4323",
"0  c #664528",
"q  c #714D27",
"w  c #734B2C",
"e  c #7B4928",
"r  c #79562B",
"t  c #644B38",
"y  c #754831",
"u  c #69543A",
"i  c #755637",
"p  c #7B5C3D",
"a  c #593B40",
"s  c #743D42",
"d  c #414146",
"f  c #6A5848",
"g  c #785B44",
"h  c #764E54",
"j  c #78505B",
"k  c #5C615D",
"l  c #77604A",
"z  c #7B644A",
"x  c #776654",
"c  c #767173",
"v  c #861F1C",
"b  c #B21A22",
"n  c #94322F",
"m  c #D42E32",
"M  c #EA2C2E",
"N  c #FA3639",
"B  c #8C5307",
"V  c #95550B",
"C  c #824E13",
"Z  c #89581D",
"A  c #955B19",
"S  c #8B6418",
"D  c #9C6415",
"F  c #A26308",
"G  c #AC6D0C",
"H  c #B8790C",
"J  c #A76A19",
"K  c #B37A15",
"L  c #874E29",
"P  c #875824",
"I  c #855C39",
"U  c #806022",
"Y  c #956528",
"T  c #A26D27",
"R  c #AB7829",
"E  c #B17427",
"W  c #AD7833",
"Q  c #CA7A10",
"!  c #983842",
"~  c #FF3641",
"^  c #DC3D7D",
"/  c #944743",
"(  c #815D45",
")  c #855055",
"_  c #AA5858",
"`  c #B25159",
"'  c #876947",
"]  c #8F6D4A",
"[  c #8B6B4C",
"{  c #987A4A",
"}  c #826853",
"|  c #8B6D55",
" . c #88755D",
".. c #957355",
"X. c #9B7A5B",
"o. c #A67240",
"O. c #A07C5A",
"+. c #915B60",
"@. c #A55967",
"#. c #8E6F65",
"$. c #917964",
"%. c #9B7D63",
"&. c #80777A",
"*. c #A86467",
"=. c #B66E6A",
"-. c #B7716E",
";. c #CB4B54",
":. c #FF484B",
">. c #FF514B",
",. c #F55559",
"<. c #C47F46",
"1. c #D4486F",
"2. c #D84778",
"3. c #C7727B",
"4. c #BD821A",
"5. c #AF833D",
"6. c #B78132",
"7. c #D58403",
"8. c #DD8A0B",
"9. c #C48517",
"0. c #CC8514",
"q. c #D98D16",
"w. c #D1901D",
"e. c #E08F19",
"r. c #E19718",
"t. c #FA9C15",
"y. c #DB9B27",
"u. c #C68937",
"i. c #CF8D33",
"p. c #D39935",
"a. c #E39D31",
"s. c #ECA82E",
"d. c #FAA827",
"f. c #F5AC2C",
"g. c #FDB32D",
"h. c #EBA030",
"j. c #F5AB36",
"k. c #FCAC33",
"l. c #F8AB38",
"z. c #FEB235",
"x. c #FFBA38",
"c. c #BE8650",
"v. c #9C846A",
"b. c #8B8679",
"n. c #988975",
"m. c #A58668",
"M. c #AF8A70",
"N. c #AA9479",
"B. c #B99877",
"V. c #C3874B",
"C. c #F4AA4C",
"Z. c #C79F7D",
"A. c #D69C70",
"S. c #C5A27D",
"D. c #D1A47D",
"F. c #EBAB65",
"G. c #F2B56C",
"H. c #F0AE74",
"J. c #F4B878",
"K. c #7F8380",
"L. c #959598",
"P. c #B39287",
"I. c #BFA586",
"U. c #9C9CA4",
"Y. c #A7A9A8",
"T. c #AFB1B7",
"R. c #B8B7B7",
"E. c #CE878D",
"W. c #DB8E95",
"Q. c #E38D99",
"!. c #E69392",
"~. c #CBA986",
"^. c #D3AB87",
"/. c #DCAD8B",
"(. c #CEB18E",
"). c #D7B58F",
"_. c #DDB18E",
"`. c #CDAB91",
"'. c #CDB397",
"]. c #D4B492",
"[. c #DDB491",
"{. c #DCB992",
"}. c #D2BE9F",
"|. c #E0AE87",
" X c #E8B786",
".X c #E4B48D",
"XX c #E9B78F",
"oX c #E6B98E",
"OX c #EABB8D",
"+X c #F9A49D",
"@X c #E2B492",
"#X c #E4BB93",
"$X c #E8BC93",
"%X c #E5BD9A",
"&X c #EC98A1",
"*X c #FEA2A2",
"=X c #FFA8A8",
"-X c #FFB2B5",
";X c #F5C68E",
":X c #E5C197",
">X c #E9C196",
",X c #E4C39B",
"<X c #E9C39A",
"1X c #EAC99D",
"2X c #F6C695",
"3X c #FDD29D",
"4X c #E9C6A0",
"5X c #E9CBA3",
"6X c #E8C9A4",
"7X c #F4CBAA",
"8X c #EAD0A5",
"9X c #F8D4A8",
"0X c #FCD5AE",
"qX c #FEDBB4",
"wX c #FDDAB9",
"eX c #FFE0AC",
"rX c #FCE2B9",
"tX c #C6C6C7",
"yX c #C9D2D9",
"uX c #D6D7D8",
"iX c #DBDEE2",
"pX c #E7E6F0",
"aX c #EDF4F7",
"sX c #F4F6F9",
"dX c #FEFFFF",
/* pixels */
"~.'.:X:X$X#Xl & p v.).OX1X8X1X<X$X$X5X6X[.^.%.u : f {.4X6X5X8X8X",
"(.].:X>X$X#Xz u R R i S.).N.n.m.v.m.N.I.S.i T R p u ,X4X6X5X5X5X",
"{.{.:X$X%X<Xz I.] p.p.1 0 6 3 C C 2 5 0 1 u.a.I `.x ,X8X8X5X<X>X",
"{.{.oX>X>X,Xg ~.| D x.j.l.d.8.7.8.q.d.f.k.x.E ( ]. .6X8X5X1X:X#X",
"(.].:X>X$X$XB.f T j.z.f.k.z.d.d.d.k.l.l.z.z.l.T f v.<X1X6X6X1X1X",
"'.).:X:XXXXX^.$ l.z.6.4 4 S f.g.k.d.D 4 4 6.l.x.9 %.$X,X<X1X4X4X",
":X:X:XOX$X$XX.R g.a.0 L.T.c U f.g.Z &.T.L.7 i.C.u.'  XoX$X>X,X,X",
"1X>X>X$X$XoX7 h.z.6 Y.dXdXdX&.E 4.c dXdXdXR.P k.j.0 ^.$X$X>X$X$X",
"1X1X>XOXXXm.3 k.h.t aXsXyXdXuXr 6 tXdXyXsXsXg r.z.C B.1X,X<X$X$X",
":X>X>XOXoX..B t.y.l dXR.+ U.aXp i yXY.+ R.sXx w.d.D } 5X5X<X<X,X",
"#X#X$X>X$XO.F 7.s.i pXc   c tXP S R.K.  k iXp y.8.F z 6X6X4X<X4X",
"_..XoXOX$XX.G 7.t.R b.U.d U.z 9.y.z Y.d L.b.R f.7.G z $X<X4X<X<X",
"/.|..XoX#XX.2 B D R 4 l P.8 * c.5.4 7 n.f * R D B C O.XXXX$X$X$X",
".X@X@X.X.X} O  .N.v.} > o O #.@.*.$.$ O > | m.B.$.& m.XXXX@X.XXX",
"%X:X#X.Xm.q A.rXrXrXrX'.8 B.` ^ ^ 3.B.8 }.rXrX0XqXA.w M.$X$X$X$X",
">X#X@X_.t c.F.2XeX9XqX9X8XqX_ 2.1._ rX9X9XqX0XwXOXC.V.g <X%X<X4X",
"@X@X_._.$ w c.G.9XqXqX0X^.%X7X/ / 7X:X(.wXqXqX0XG.<.7 , ,X6X5X5X",
"/.|././.B.M.* <.G.9XqXwX].X...< 1 ' X.%XwXqX3XH.<.& $.m.%X,X5X5X",
"/././.[.@X@Xv.$ o.F.;X2X$X2X^.] o.D.>X;XOXJ.F.W O %._.[.[.{.,X8X",
"@X_.[..X@X@X.Xq = 9 9 y % > ] { { ' % % y y 0 # 4 ~.[.[./._.{.,X",
"%X$X.X/./..XB.V 0.Y a P.1 < / -   < ;.! - j * 0.V m.<X:X{._._.].",
"<X$X@X|..XoX' D z.W +.-X-.v >.,.;.:.:.m s E.e f.G ' >X<X%X%X/./.",
"$X$XXX.X X$X' J z.1 ) =X+X) b N ~ N N v -.Q.0 s.w.r |.XX$X%X@X@X",
"$XXXXXXX$X:XI i.z.@ j =X*X&X/ b M m n _ *XE.& s.f.r |.XX$X%X%X@X",
"$XXXXXXX>X1Xz 4 P X h -X*X*X*X=.! / -.*X=X!.O 4 Z 0  XOX#X#X.X.X",
"$X$X$X$X:X:Xz | '. .; -.E.W.!.!.E.W.&XW.E.*.8 I.B.g [.$X$XoX.X.X",
"%X>X>X%X#X[.[ c.2X8 @ J A L L L L L 6 Z Z 3 X D. XI .X$X$XOXXX X",
"<X>X%X%X{._.~.f q X = t.Q J K 0.w.0.4.K r.9.. & i O..X.XoXoX.X/.",
"#X@X[.@X@X{.#X#XS.m.# t.5 8 g i i I I 7 H Q t M.Z./././.).)././.",
".X.X@X#X#X#X#X:X>X$XI e.4 ~.OX X XXX>Xm.A G v._.|./././._._./.).",
"/.@X,X<X:X$X#XXXOX>XX.D [ $X$XoX X.X:XS.i P Z./._.@X_.@X@X#X#X,X",
"/.[.5X8X<X XXX.X:X:XB.O S.oXOX$XoX.XOXoX} 1 /./.@X@X@X@X@X%X4X6X"
};
