/* XPM */
static char *character2[] = {
/* columns rows colors chars-per-pixel */
"32 32 223 2 ",
"   c black",
".  c #1B0F0A",
"X  c #271904",
"o  c #2F110D",
"O  c #2A1B0B",
"+  c #321C15",
"@  c #2E210B",
"#  c #37240D",
"$  c #3B210E",
"%  c #3A2617",
"&  c #3C3123",
"*  c #393939",
"=  c #4A2A09",
"-  c #473208",
";  c #59370D",
":  c #472A17",
">  c #513214",
",  c #593718",
"<  c #623A1E",
"1  c #4E2E2C",
"2  c #473528",
"3  c #543A26",
"4  c #513E36",
"5  c #6A2E2E",
"6  c #733A35",
"7  c #5C4217",
"8  c #5B421B",
"9  c #774A0C",
"0  c #7A4A1F",
"q  c #6E5018",
"w  c #5E432C",
"e  c #5E4A2E",
"r  c #544332",
"t  c #584B33",
"y  c #694928",
"u  c #704B25",
"i  c #6F5021",
"p  c #7D552A",
"a  c #7C592C",
"s  c #664B35",
"d  c #794A36",
"f  c #765839",
"g  c #70603E",
"h  c #7E3749",
"j  c #484847",
"k  c #404152",
"l  c #5D5C53",
"z  c #754845",
"x  c #6C5543",
"c  c #715345",
"v  c #755846",
"b  c #735355",
"n  c #796648",
"m  c #63615F",
"M  c #7A6752",
"N  c #77756A",
"B  c #7C7878",
"V  c #870A05",
"C  c #9D3531",
"Z  c #A52B31",
"A  c #C92E2F",
"S  c #EC2B28",
"D  c #885509",
"F  c #965907",
"G  c #854D1A",
"H  c #8B5110",
"J  c #875818",
"K  c #986718",
"L  c #A8670E",
"P  c #B76C06",
"I  c #B9740B",
"U  c #A76916",
"Y  c #874E2B",
"T  c #875A2B",
"R  c #925E25",
"E  c #865B34",
"W  c #986929",
"Q  c #966D32",
"!  c #A66B2A",
"~  c #A77128",
"^  c #B97B24",
"/  c #AB7138",
"(  c #C67700",
")  c #C57B0A",
"_  c #883A4D",
"`  c #AF2E51",
"'  c #FB3443",
"]  c #C83D6B",
"[  c #8F4643",
"{  c #834B4C",
"}  c #8E5954",
"|  c #AD5251",
" . c #846547",
".. c #826453",
"X. c #8D6D54",
"o. c #936A55",
"O. c #857052",
"+. c #8C745D",
"@. c #997558",
"#. c #9A7A5B",
"$. c #AB7A4C",
"%. c #AC7054",
"&. c #B65663",
"*. c #946B64",
"=. c #9A7865",
"-. c #BB6C6B",
";. c #A17A64",
":. c #C75051",
">. c #F64B51",
",. c #C67279",
"<. c #FF636A",
"1. c #B58536",
"2. c #CA830A",
"3. c #D3820A",
"4. c #DC990D",
"5. c #C98617",
"6. c #D78612",
"7. c #EA920C",
"8. c #F49B0B",
"9. c #E29216",
"0. c #CD8923",
"q. c #CC942F",
"w. c #D7982C",
"e. c #D28D33",
"r. c #E4992A",
"t. c #E1953A",
"y. c #DFA22F",
"u. c #EBA92C",
"i. c #F4A628",
"p. c #FDAE2C",
"a. c #FDB22D",
"s. c #E5A437",
"d. c #F9AD36",
"f. c #F4AA3B",
"g. c #FFB333",
"h. c #FFBA36",
"j. c #FDB63E",
"k. c #958479",
"l. c #A98668",
"z. c #AB906E",
"x. c #B7916B",
"c. c #A98D71",
"v. c #B39374",
"b. c #BA9274",
"n. c #B6967A",
"m. c #C98E50",
"M. c #E59D46",
"N. c #E69E58",
"B. c #EBAD40",
"V. c #C2997A",
"C. c #CFA57B",
"Z. c #F1AE74",
"A. c #F7BE77",
"S. c #D07C8A",
"D. c #FA659C",
"F. c #878789",
"G. c #948F8A",
"H. c #9D918D",
"J. c #999897",
"K. c #A78C80",
"L. c #B4A489",
"P. c #AEAFB2",
"I. c #D78988",
"U. c #E38E93",
"Y. c #E89799",
"T. c #F7999A",
"R. c #FF9C9C",
"E. c #CAA484",
"W. c #CDAB86",
"Q. c #D2A585",
"!. c #D3AB86",
"~. c #D8AA88",
"^. c #DCAD8B",
"/. c #D6B28F",
"(. c #DDB28E",
"). c #CEB697",
"_. c #D4B693",
"`. c #DDB491",
"'. c #D3B997",
"]. c #DEB994",
"[. c #DCBC99",
"{. c #E0AE8C",
"}. c #E6B487",
"|. c #E5B48D",
" X c #E9B78F",
".X c #E6B98E",
"XX c #E8BA8F",
"oX c #F4A69C",
"OX c #E2B593",
"+X c #E5BB94",
"@X c #E8BC93",
"#X c #E4BE9B",
"$X c #EABE9A",
"%X c #FF95A2",
"&X c #FEA3A5",
"*X c #FFA4A8",
"=X c #FFACAC",
"-X c #FFB2B8",
";X c #E6C096",
":X c #E8C196",
">X c #E4C39B",
",X c #E9C49B",
"<X c #E9CA9E",
"1X c #FFCC9B",
"2X c #E9C7A1",
"3X c #E7CAA2",
"4X c #EACBA3",
"5X c #EACDA8",
"6X c #F9CEA7",
"7X c #ECD1A5",
"8X c #EBD2AB",
"9X c #FFD7A8",
"0X c #FED1AC",
"qX c #FED5B2",
"wX c #FEDBB7",
"eX c #FFE3A9",
"rX c #FFE7BB",
"tX c #C8C7C7",
"yX c #D7D7D7",
"uX c #DCE0DD",
"iX c #E4E3E7",
"pX c #F6F5FC",
"aX c #FDFEFD",
/* pixels */
").'.>X_./.>X4X8X8X3X:X:X5X8X4X/.O. .. L.[.`.#X2X5X5X3X2X5X8X8X8X",
")._.;X. # l.E.3X<X@X|.|.;X>X+Xf q.i n r `.^.OX#X2X5X2X<X4X4X4X3X",
"[.]..X2 g e.a @.#. .3 y y s , M.T o.6X% `.^.OX$X4X5X5X5X5X3X:X:X",
"[.].+X2 +.^ f.D L P P ) w.r.d.j.= n.9X2 v.^.OX@X,X4X5X4X4X4X:X@X",
"_._.;Xr 3 s.g.7.3.9.i.a.j.g.p.p.f.R c.4 l.{.oX}.@X@X,X3X4X<X,X3X",
"'._.;X: ! h.g.d.i.t.K K W g.p.p.g.g.R % V.|.|.|.}. X@X:X,X<X3X3X",
">X;XW.# Q 0 ^ a.p.q N F.l K a.a.d.p.u.+ |. X{.}.}.}..X.X@X:X:X,X",
"<X,Xz.& N P.M y.1.H.aXaXaXN a.a.a.a.a.> ;. X}.|. X XXX@X@X:X@X:X",
"4X<X#.j J.uXiX, 8 F.j tXaXP.~ a.d.g.i.U X.|.}.|.@X$X,X2X,X:X:X$X",
"<X:X#.G.* * iXj # m   m aXtXa h.d.a.3.I f |. X X@X,X4X4X3X,X,X:X",
"#X.Xz.k F.B pX> 0 J.* P.aXP.q.g.a.9.( ) f :X|.|. X@X,X2X3X2X2X2X",
"OX|.X.7 G.yXk.0.B.n uXaXtXx h.g.g.9.( ) a :X+X.XOX@X$X$X,X2X,X,X",
"OX~.% 1.T 8 % a / 1.3 j @ R ^ ^ w.d.9.I d [.,X#X@X@X X.X+XOX@X@X",
"#X% =.n.X.6 _ _ h 7 a v c.b.K.k.M T ^ K ..].[.2X>X:X@XOX X X|. X",
",X$ C.rXwX&.] D.` *.E.rXwXwXwXeXwX[.f # z.].`.].>X4X,X:X@X@X@X$X",
",X+.1 4XeXOX&.` ,.qX$X0X0X0X9X0X0XA.N.< l.].~.`.>X4X3X2X,X:X,X,X",
"+XOXl.3 W.;.%.; b.;.V.6XqXqX0X1XZ.M./ $.x +X~.W.`.[.,X>X3X2X3X5X",
"`.^.~.b.x  .%. .#.C.6X6X1X1XZ.m.%.d X @ 4 +Xn ..+.].[.[.[.3X3X5X",
"OX^.^.OX{...y V.C.v.d E $.$.{ d *.o / L u 3 2XrXc.`.`.`.`.].>X3X",
"OXOX`.`.{.Q.; o o.% > { z o 5 U.*X6 e.5.9 = $.c X.OXOX`.^.(.[.>X",
",X@X`.^.(.M 9 3 -Xz <.| 5 :.:.} R.-.! d.D ; F O ,X,X>X>X].(.(.`.",
"2X@X|.{.}.t J v -X[ S >.>.>.Z { T.Y.~ g.U . 5.- v.,X:X:X#X+X`.~.",
",X@XOX|.|.2 = ..=XI.V ' S S 5 Y.R.Y.W d.L #Xp w.r .X|.@X@X#X].OX",
"$X X X X+Xr X.b =X=X&.Z A C Y.&X%XI.f f > `.c 0.q }.}. X@X$X+XOX",
"$X X X.X:X3 E c =XR.*X-.&.U.R.R.*X{ n.>X!..X/.U U :XXXXX@X@X|. X",
"$X@X@X+X:XW.w 1 S.U.T.*X&X&XT.U.U.b s m.l.(.+.t.y.@X@X+X@X.X|.|.",
"<X:X:X@X].`.v.# J G Y Y d d Y Y G J ; X b /.v u.5.+X.X.X;X.X|.|.",
"<X$X:X#X`.(.E.# 8.4.2.6.6.3.2.P 6.8.8.% 8 e W 5.H (.|..X.X.X|.(.",
",X+XOX`.].].+XX 7.D s T E E f c = 4.8.= r.u.h.P y ^.^.^.(.(.^.^.",
"OX(.|.`.+X+X;X@ 6., :X:X<X;X.X Xx.9 ) = s.i.q., b.^.^.^./.(.(.(.",
"OX`.,X<X:X@X.X=.0  ..X:X;X;X@X.X|.1 q c.v y s Q.`.OX{.OXOXOX;X>X",
"OXOX4X7X:XXX|..X3 z.:X:X.X.X@X@X}.Q...+X].^.~.~.OXOXOXOXOX#X<X5X"
};
