/* XPM */
static char *character4[] = {
/* columns rows colors chars-per-pixel */
"32 32 198 2 ",
"   c #170B00",
".  c #1C0C03",
"X  c #1B1209",
"o  c #220B02",
"O  c #200B09",
"+  c #271807",
"@  c #351C0A",
"#  c #251C1A",
"$  c #372404",
"%  c #3A2400",
"&  c #34230E",
"*  c #2D2313",
"=  c #382514",
"-  c #352723",
";  c #3E3726",
":  c #482908",
">  c #5D2E0A",
",  c #5A350A",
"<  c #462A16",
"1  c #5A2F17",
"2  c #493117",
"3  c #52301D",
"4  c #553818",
"5  c #5B3C1B",
"6  c #673A06",
"7  c #663F0D",
"8  c #613A14",
"9  c #4A3626",
"0  c #5A3F23",
"q  c #502630",
"w  c #463331",
"e  c #692D30",
"r  c #693C3B",
"t  c #723834",
"y  c #5C430F",
"u  c #5F421A",
"i  c #6A4309",
"p  c #754604",
"a  c #7D4705",
"s  c #77490A",
"d  c #7A4C0C",
"f  c #765004",
"g  c #6C4313",
"h  c #6D441C",
"j  c #6C4C1E",
"k  c #75471B",
"l  c #7C551E",
"z  c #5A4323",
"x  c #58432E",
"c  c #4D4339",
"v  c #584637",
"b  c #654822",
"n  c #6B4F2D",
"m  c #6D5125",
"M  c #624B39",
"N  c #7D4932",
"B  c #6B563A",
"V  c #743943",
"C  c #644E42",
"Z  c #6C5B4D",
"A  c #665A53",
"S  c #6C6358",
"D  c #746858",
"F  c #7F695A",
"G  c #834D04",
"H  c #8B560A",
"J  c #97580D",
"K  c #854D12",
"L  c #8B5719",
"P  c #955911",
"I  c #A65B02",
"U  c #9F620B",
"Y  c #976314",
"T  c #A46106",
"R  c #AB6504",
"E  c #B66203",
"W  c #B86907",
"Q  c #BE7403",
"!  c #BC720C",
"~  c #A56512",
"^  c #AA6C13",
"/  c #B56E11",
"(  c #B27719",
")  c #8D6125",
"_  c #9A6326",
"`  c #9C6C21",
"'  c #AC7B26",
"]  c #B5772C",
"[  c #C57300",
"{  c #CC7506",
"}  c #CD7B05",
"|  c #C3740E",
" . c #C67C0D",
".. c #D37E03",
"X. c #D77C08",
"o. c #DA7F08",
"O. c #C47813",
"+. c #D37E18",
"@. c #854845",
"#. c #914F4B",
"$. c #94544A",
"%. c #98564A",
"&. c #9B4F51",
"*. c #A35349",
"=. c #AE5A55",
"-. c #B85D5A",
";. c #84694F",
":. c #806D5B",
">. c #867361",
",. c #927C6F",
"<. c #DC777E",
"1. c #FA7C7E",
"2. c #BB8524",
"3. c #C88409",
"4. c #D68303",
"5. c #DE8504",
"6. c #DC8A04",
"7. c #D4840A",
"8. c #D9840A",
"9. c #D38B0C",
"0. c #DD8B0A",
"q. c #CA8317",
"w. c #D48B18",
"e. c #E28602",
"r. c #EB8705",
"t. c #E38902",
"y. c #EB8D04",
"u. c #E4850A",
"i. c #EB8D09",
"p. c #F08F0B",
"a. c #EC950B",
"s. c #ED9A0E",
"d. c #F29B0C",
"f. c #E58A15",
"g. c #E29115",
"h. c #EB9716",
"j. c #E9981A",
"k. c #C5862B",
"l. c #D08B27",
"z. c #D99432",
"x. c #E89526",
"c. c #DFA336",
"v. c #EBA328",
"b. c #FFAA24",
"n. c #FCBA2C",
"m. c #EDA732",
"M. c #FFBB3B",
"N. c #988473",
"B. c #B8946D",
"V. c #AC947C",
"C. c #B89873",
"Z. c #F6AA45",
"A. c #FFB342",
"S. c #FE847A",
"D. c #C5A07D",
"F. c #F37E85",
"G. c #FB7D81",
"H. c #FC7B89",
"J. c #FE8284",
"K. c #F88686",
"L. c #FF8688",
"P. c #CAA583",
"I. c #D3AD8C",
"U. c #DCAE8B",
"Y. c #D7B58D",
"T. c #DDB28E",
"R. c #CEB697",
"E. c #D4B693",
"W. c #DDB491",
"Q. c #DEB994",
"!. c #D5B998",
"~. c #DDBD99",
"^. c #E0AE8B",
"/. c #E6B487",
"(. c #E5B58D",
"). c #E9B78F",
"_. c #E7B98E",
"`. c #E8BA8F",
"'. c #E2B493",
"]. c #E5BB93",
"[. c #E8BD93",
"{. c #E5BE9A",
"}. c #EABE98",
"|. c #E6C196",
" X c #E9C196",
".X c #E4C39C",
"XX c #E9C39B",
"oX c #E8CA9F",
"OX c #DDC3A9",
"+X c #DAC7B2",
"@X c #E9C7A1",
"#X c #E6C9A2",
"$X c #E9CBA3",
"%X c #E7CEA8",
"&X c #EACDA8",
"*X c #ECD1A5",
"=X c #EAD2AB",
"-X c #FFE1BA",
/* pixels */
"R.!..XoX X}.&XF >.V.|. X&X&X$XXX X@X&X%X~.W.N.:.>.$X&X@X&X&X=X=X",
"R.E.|. X[.}.Z l ` m :.].|.@XXX].}.XX$X#XY.;.j ] z &X@X@X@X&X$XoX",
"~.Q._.[. XXXA ( a.j.` v M 0 4 z n 4 x C b k.h.b.i *X$X$X*X@X X X",
"~.Q.].|. X XS L r.e.a. .| 9.8.8.8.7.w.! g.p.t.j.: $X$X=X$X@X X X",
"E.E.|. X[.`.T.h y.e.e.t.t.e.e.e.e.e.e.t.e.e.t.g.2  XXX@X#X@X@X@X",
"!.E.|. X`.).].& a.e.5.e.e.e.e.e.e.e.e.e.e.e.t.T v _.[. XXXoXoX$X",
".X{. X[.[.}.D l h.5.6.e.e.e.e.e.e.e.e.e.e.e.e.w.< ).(.`. X X XXX",
"$XXX[.[.[.[.w z.{ 4.e.e.e.t.e.e.e.e.e.e.e.e.t.s.' D _.[.[.]. X X",
"$XXX X`.`._.g g.E W o.4.5.o.e.t.i.0.4.0.e.6.X.e.x.v XXoXXX X X}.",
"oX X X X]._.a 0...E E W Q 4.5.e.I u n Y 8.7.I } f.9 &X$X@XXXXXXX",
"}.`.`. X[.T.p 0.6.X.8...4.6.6./ v !.OX< | R E 6.f.3  X@X@X@X@X@X",
"'.(.`.`.].Z a 0.e.e.e.e...4.a.3 +X-X,.H } 4.8.r.8.@ }.}.XX@XXXXX",
"'.(.(.].'.o | 6.u.e.e.u.{ W +.X C.P.+ q.e.e.u.f.t.b (.).].[.).].",
"Q.(.(.(.U.+ T 3.u.e.6.e.e.| ! @ G K $ J p.e.e.e.o.: (.'.'.).'.).",
"@X{.'.(.U.9 & < O.e.e.e.t.t.e.^ , 3.q.> R t.e.i 3 = XX|.[.[.[.[.",
"XX].'.T.U.^.(.# 7 7.[ i.e.y.y.i.H y l.Z.8 U K   c $X@X@XXX XXX@X",
"{.(.'.U.^.'.(.[.= , 1 P s ^ / W ! h X _ q.: O w Q..X.X.X#X#X#X&X",
"T.U.U.U.'.'.).[.-   t =.=.&.$.%.*.=.<.e G q.= W.W.Q.Q.{.~.#X#X$X",
"'.U.U.'.'.'.(.`.: s -.L.L.H.H.J.H.G.1.<.: m.c.; Q.W.W.W.W.E..X$X",
"'.^.T.'.^.(.(.[.i O.V L.G.1.1.G.1.G.F.1.$.k.v.$ {.W.W.W.U.T.~..X",
"@X].'.U.T.(.(. Xf 2.q <.F.L.J.S.S.J.S.K.*.2.[ %  X.X.X|.'.W.T.W.",
"@X}.(.^./._.].XXd L ~ k N @.&.=.@.#.@.r 3 v.Q %  XXXXXXX{.].T.I.",
"XX[.(.(._.`..X#Xi L d.t.9.! ^ o 7 s i L z.A.q.+ `._.).`.].{.'.'.",
"}.).).).`. XoX.X< < j.i.i.p.h.o | Q 3.n.n.M.U - _././.(.[.}.}.'.",
"}.).)._. X.XoX|.I.V.y a.i.i.d.g 6 f G 2.k.) 3 _._._._.`.[.].(.).",
"}.[._.`. X.X~.Q.T.C.@ P 9.0.3.h # 4 g 5 X . B _.`.`.|.`.`._.(.(.",
"@XXX}.{.].W.T.Y.'.I., U B.[.[. X X9 u 2 H 5 D._.`.[.`.|.|.`.(.(.",
"@XXX[.{.Q.T.T.W.{.~.& J _.[.[. X[. X|.Y.s m _.(././.(.(._._.T./.",
"{.].(.Q.W.Q.].].|. X[.* XX X`._._.`. X X$ ).'.(.T.U.U.U.Y.T.U.U.",
"'.(.W.'.{.].{. X|.[.[. X.X X`.(.(.`. X X].'.'.T.U.U.U.U.T.T.T.T.",
"Q.'..XXX|.[._._.[.[. X X X`.[._._./._. XW.W.U.U./.W.^.'.W.{.{.|.",
"W.'.$X*X X`.(.(.`.|. X X`.`.[._._._. X_.Q.T.U.U.'.'.'.'.'.{.#X$X"
};
