/* XPM */
static char *character3[] = {
/* columns rows colors chars-per-pixel */
"32 32 224 2 ",
"   c black",
".  c #1B0F0A",
"X  c #271904",
"o  c #2F110D",
"O  c #2A1B0B",
"+  c #321C16",
"@  c #37240D",
"#  c #3B210E",
"$  c #3A2717",
"%  c #3C3123",
"&  c #393939",
"*  c #4A2A09",
"=  c #473208",
"-  c #59370D",
";  c #4A2B13",
":  c #412A1E",
">  c #593718",
",  c #623A1E",
"<  c #502626",
"1  c #473528",
"2  c #543A26",
"3  c #513C37",
"4  c #6A2E2E",
"5  c #733A35",
"6  c #5C4217",
"7  c #5B421C",
"8  c #774A0C",
"9  c #7A4A1F",
"0  c #6E5018",
"q  c #5F432C",
"w  c #5E4A2E",
"e  c #544232",
"r  c #564A34",
"t  c #6A4928",
"y  c #6F5224",
"u  c #7C572A",
"i  c #664B36",
"p  c #794A36",
"a  c #7B5633",
"s  c #755A37",
"d  c #74543B",
"f  c #70603E",
"g  c #7E3749",
"h  c #484847",
"j  c #404152",
"k  c #5D5C53",
"l  c #754845",
"z  c #6B5644",
"x  c #715345",
"c  c #775945",
"v  c #735355",
"b  c #7A664B",
"n  c #63615F",
"m  c #796A53",
"M  c #77756A",
"N  c #7C7878",
"B  c #870A05",
"V  c #9D3531",
"C  c #A52B31",
"Z  c #C92E2F",
"A  c #EC2B28",
"S  c #885509",
"D  c #965907",
"F  c #854D1A",
"G  c #8B5110",
"H  c #875818",
"J  c #986718",
"K  c #A8670E",
"L  c #B76C06",
"P  c #B9740B",
"I  c #A76916",
"U  c #BA7A1A",
"Y  c #874E2B",
"T  c #875A2B",
"R  c #925E25",
"E  c #824C35",
"W  c #865B33",
"Q  c #986929",
"!  c #966D32",
"~  c #A66B2A",
"^  c #A77128",
"/  c #B97B24",
"(  c #AB7138",
")  c #C67700",
"_  c #C57B0A",
"`  c #F34038",
"'  c #AF2E51",
"]  c #FB3443",
"[  c #C83D6B",
"{  c #8F4643",
"}  c #834B4C",
"|  c #8E5954",
" . c #AD5251",
".. c #836445",
"X. c #92674D",
"o. c #866853",
"O. c #926D58",
"+. c #877255",
"@. c #8C755E",
"#. c #9A755A",
"$. c #997B5F",
"%. c #AB7A4C",
"&. c #AC7054",
"*. c #B65663",
"=. c #936A64",
"-. c #967865",
";. c #BB6C6B",
":. c #A27968",
">. c #C75051",
",. c #F64B51",
"<. c #C67279",
"1. c #FF636A",
"2. c #B58536",
"3. c #CA830A",
"4. c #D3820A",
"5. c #DB890A",
"6. c #DC990D",
"7. c #C98617",
"8. c #D78612",
"9. c #EA920C",
"0. c #F49B0B",
"q. c #E29216",
"w. c #F09314",
"e. c #CD8923",
"r. c #CC942F",
"t. c #D7982C",
"y. c #D28D33",
"u. c #E4992A",
"i. c #E1953A",
"p. c #DFA22F",
"a. c #EBA92C",
"s. c #F4A628",
"d. c #FDAE2C",
"f. c #FDB22D",
"g. c #E5A437",
"h. c #F9AD36",
"j. c #F4AA3B",
"k. c #FFB333",
"l. c #FFBA36",
"z. c #FDB63E",
"x. c #B5814F",
"c. c #A58264",
"v. c #AB8D6D",
"b. c #AE916E",
"n. c #A68F72",
"m. c #B29473",
"M. c #BB9375",
"N. c #B69778",
"B. c #BCA37F",
"V. c #C98E50",
"C. c #E59D46",
"Z. c #E69E58",
"A. c #EBAD40",
"S. c #CFA57B",
"D. c #F1AE74",
"F. c #F7BE77",
"G. c #D07C8A",
"H. c #FA659C",
"J. c #878789",
"K. c #948F8A",
"L. c #999897",
"P. c #B6A287",
"I. c #AEAFB2",
"U. c #D78988",
"Y. c #DE9395",
"T. c #E48F8C",
"R. c #E38E93",
"E. c #E89799",
"W. c #F7999A",
"Q. c #FF9C9C",
"!. c #CCA482",
"~. c #CAAB88",
"^. c #D3A984",
"/. c #D3AC8B",
"(. c #DDAE8B",
"). c #D7B18D",
"_. c #DDB28E",
"`. c #CEB697",
"'. c #D5B693",
"]. c #DDB491",
"[. c #D3B997",
"{. c #DEBA93",
"}. c #DCBC99",
"|. c #E1AE8B",
" X c #E4B48D",
".X c #E9B78F",
"XX c #E6B98F",
"oX c #E8B98F",
"OX c #F4A69C",
"+X c #E2B493",
"@X c #E5BC93",
"#X c #E8BD93",
"$X c #E5BE9A",
"%X c #EABE9A",
"&X c #FF95A2",
"*X c #FEA3A5",
"=X c #FFA4A8",
"-X c #FFACAC",
";X c #FFB2B8",
":X c #DFC49D",
">X c #E5C097",
",X c #E9C196",
"<X c #E4C39B",
"1X c #E9C49B",
"2X c #E8C99E",
"3X c #FFCC9B",
"4X c #E9C7A1",
"5X c #E7CAA5",
"6X c #EACBA2",
"7X c #F9CEA7",
"8X c #ECD1A5",
"9X c #EBD2AB",
"0X c #FFD7A8",
"qX c #FED1AC",
"wX c #FED5B2",
"eX c #FEDBB7",
"rX c #FFE3A9",
"tX c #FFE7BB",
"yX c #C8C7C7",
"uX c #D7D7D7",
"iX c #DCE0DD",
"pX c #E4E3E7",
"aX c #F6F5FC",
"sX c #FDFEFD",
/* pixels */
"`.[.<X2X,X1X5X9X9X6X,X#XP.. ..+./.2X9X5X}.].$X5X9X5X5X[.}.9X9X9X",
"`.'.>X,X#X#X4X6X2X,X#X#Xe b t r.s @X5X:X]./.].%X5X~.c.@ . 5X6X6X",
"}.{.XX#X,X1X,X,X#X#X#X,X% 7XO.F C.7 i t t , ..-.-.W y.z 1 6X<X>X",
":X].@X,X%X,X#X#X.X.X#XM.1 0XM.; z.s.u.t._ L L K G j./ +.1 2X,X,X",
"'.'.>X1X#X#X#X#X#X#X@Xb.e v.R j.d.d.k.l.f.s.q._ 9.k.g.2 1 4X4X4X",
"'.'.>X,X#X.X@X#X>X#X#X!.$ T l.f.d.d.z.Q J J g.s.k.k.l.~ : 2X4X4X",
"4X$X#X#X#X$X#X#X#X>X,X>X+ a.f.h.d.f.Q z J.N t k.h.U H ! * ~.1X1X",
"6X,X#X#X#X#X,X,X#X#X$X:.- f.d.h.d.h.M aXsXsXK.U p.m I.M % b.,X,X",
"6X1X,X,XXX#X@X,X<X>X'.+.I s.k.d.l.^ I.sXyXh J.6 > pXiXL.h $.>X>X",
"2X,X,XoX#X#X@X>X>X}. Xd P 4.d.h.l.u yXsXn   n @ e pX& & K.c.>X>X",
"#X#XoX,X#X#X+X]._._.+Xa 3.) q.h.f.r.I.aXI.& L.9 : aXN J.j N.5X2X",
"+XXXoXoX#X$X].(.(.(.+Xu P ) q.k.f.l.d yXsXiXb A.e.J.uXK.7 +.1X1X",
"].+X XXX#X_.(.(.|. XXXd P w.h.t.2./ Q O e q 2.^ u $ 6 T 2.$ ].@X",
"+X X X X_._.(.|. X XoXo.J / T m c.n.m.n.c T 2 g } g 5 o.N.-.: .X",
"1X$X@X+X(.(.|. XoX,X,XN.@ p }.tXeXrXeXeXeXP.:.' H.[ *.tXtXS.+ %X",
"4X#X]._.(.|.+X.X@X,X2Xn., Z.F.qXwX7XqXwX7X%XwX<.' *.OX0X7X1 @.2X",
"@X+X_.|.+X X.X_.{.<X5Xz %.( C.D.3XwXwXwX7XM.c.N.> &.:.!.2 n.5X8X",
"+X(.(.(.+X X X@.o.m <Xe # O E X.V.D.3X3X7X0XS.#.X.%...z B.<X5X9X",
"+X(._.].+X+X Xn.tX4X2 t K ( o =.p E %.%.E p M.^.M.t b ].'.].<X5X",
"+X_.]._.|. X XO.x x.* 8 3.y.5 -XR.4 # l } < $ | o - !.+X(.].{.<X",
"4X#X(.|. X X X,XX D - S k.~ ;.Q.} *.>.4 V 1.l ;X2 S m >X+X].'.].",
"4X%X X|. XXXXXm.= 7.. J k.~ Y.W.} C ,.,.,.` { ;Xx H r 1X>X+X].(.",
"2X#X X X X#X<Xr y.u ].K k.Q E.Q.W.4 A ] ] B U.-Xv * % #X$X%X+X+X",
"%X.X.X.XoX>X2Xy e.x /.- s x U.&X=XE.C Z V &.=X=Xv $.e .X#X@X@X.X",
"%X.X.XoX,X1X2XI I ~./.!.2XN.| &XQ.Q.T. .<.=XQ.-Xp W 2 oX#X#X.X X",
"%X.X#X,X>X>X:Xp.i.-./.c.V.i v R.E.W.*X*X=XW.R.G.1 i S.oX#XXX X X",
"4X,X,X>X{.].].7.a.z ].k X - F F Y Y p p p Y F G $ M.XX@X>XXX X X",
"4X1X>X+X].).).G 8.! w > ; w.0.5.L 3.8.8.8.3.6.0.@ !. X XXXXX X X",
"<X+X@X].].{.+Xw P l.a.t.* 0.9.= x f W T W i S 9.X (.(.(.)._.(.(.",
"+X X].+X$X#X$X!.> e.f.g.* 3.8 b..X X>X,X@X_.- 5.@ (.(.(.(._._._.",
"+X+X>X2X#X#XXX#X_.i t c v.0 1 XXXXXXoX>X@X_.c 9 #.]._._.+X+X>X<X",
"+X+X6X8X1XoX X X$X#X#X@X#Xc ^.oXXX XoX,X@X].:.3 ].+X+X+X@X$X2X5X"
};
