/* XPM */
static char *result[] = {
/* columns rows colors chars-per-pixel */
"32 32 127 2 ",
"   c #A6471E",
".  c #AC4C1E",
"X  c #B04F1C",
"o  c #AF511E",
"O  c #B3511D",
"+  c #A54A23",
"@  c #AB4D21",
"#  c #AC5223",
"$  c #A4522A",
"%  c #AB542B",
"&  c #AB592D",
"*  c #B05120",
"=  c #B65C27",
"-  c #B85C27",
";  c #B45B29",
":  c #A45732",
">  c #AC5E33",
",  c #A45D3C",
"<  c #AB643E",
"1  c #B76331",
"2  c #B86534",
"3  c #B1643B",
"4  c #B26A3E",
"5  c #B9713F",
"6  c #AC6643",
"7  c #AF6943",
"8  c #A46C4F",
"9  c #AE6F4D",
"0  c #B36D42",
"q  c #BB6F41",
"w  c #B37147",
"e  c #B5744C",
"r  c #BB7749",
"t  c #B8794D",
"y  c #AF7C5E",
"u  c #BA7752",
"i  c #B97B52",
"p  c #B47A58",
"a  c #C17E53",
"s  c #A5856E",
"d  c #AE886C",
"f  c #B28364",
"g  c #BF8761",
"h  c #B58967",
"j  c #B2886A",
"k  c #AB8770",
"l  c #AD8A71",
"z  c #B28D73",
"x  c #AA977B",
"c  c #AE9A7D",
"v  c #B39176",
"b  c #B49479",
"n  c #BA9579",
"m  c #B49A7D",
"M  c #BD9A7C",
"N  c #C5865C",
"B  c #C48A5D",
"V  c #C8895E",
"C  c #C48A64",
"Z  c #CF8F62",
"A  c #CE9366",
"S  c #CA946D",
"D  c #D0996F",
"F  c #C79470",
"G  c #D49D73",
"H  c #D89F72",
"J  c #D39E79",
"K  c #D7A072",
"L  c #D5A37B",
"P  c #DCA67B",
"I  c #DDA97E",
"U  c #E1AB7D",
"Y  c #B39F81",
"T  c #B4A284",
"R  c #BEA585",
"E  c #B5A58A",
"W  c #BEA98B",
"Q  c #B4A792",
"!  c #B5A995",
"~  c #BCAC93",
"^  c #B3AA9B",
"/  c #B3ADA3",
"(  c #B2AEA9",
")  c #B3B1AE",
"_  c #C4A483",
"`  c #CAA382",
"'  c #C4A987",
"]  c #C5AB8C",
"[  c #CDAD8D",
"{  c #D4A482",
"}  c #D5AA84",
"|  c #DCAE86",
" . c #D5AD8A",
".. c #DCAD8B",
"X. c #CDB18E",
"o. c #DEB387",
"O. c #D4B28D",
"+. c #DDB28D",
"@. c #CBB392",
"#. c #CFB896",
"$. c #D3B591",
"%. c #DDB491",
"&. c #D7BC96",
"*. c #DDBA94",
"=. c #D3BD9A",
"-. c #E1AF85",
";. c #E1AE8A",
":. c #E4B387",
">. c #E4B48D",
",. c #E9B78E",
"<. c #E6B98E",
"1. c #E8B98E",
"2. c #E2B592",
"3. c #E4BB93",
"4. c #E8BD93",
"5. c #E3BE99",
"6. c #DEC39D",
"7. c #E5C197",
"8. c #E9C196",
"9. c #E5C39C",
"0. c #E9C49B",
"q. c #E5C99F",
"w. c #E9C89D",
"e. c #E9C7A1",
"r. c #E7C9A1",
"t. c #E9CBA3",
"y. c #EAD0A5",
/* pixels */
"] $.7.0.<.4.r.t.t.w.4.<.*.6.*.*.*.*.q.6.[ ..2.e.e.e.9.9.e.t.y.y.",
"X.$.3.8.4.8.w.t.r.7.o. .O.$.$.O.O.$.=.=.[ [ $.5.r.y.e.e.t.t.t.e.",
"&.*.<.4.8.8.0.8.4.>.` M M Y _ _ W W ~ ~ ! ] ] $.r.t.y.y.t.r.0.4.",
"*.*.3.4.5.8.8.<. .L n l z z b Y T E ! ^ ^ ^ Y W =.r.t.y.t.e.5.4.",
"X.$.4.8.4.,.4.>._ n v z z z m Y E Q / ( ( ^ Q E ' O.5.r.t.t.e.e.",
"$.$.9.8.4.,.4.O.M l z z z v m T E ! ( ) ) / Q T m _ %.7.0.e.0.t.",
"5.7.8.4.4.4.5.+.n k z z z b m T E ! / ) ) / ! T m M o.<.4.8.8.8.",
"w.0.4.4.4.4.4.+.n k j z z z m m E E ^ / / ^ ! T x m +.4.4.8.4.8.",
"0.0.8.8.4.4.2. .b k l z z b m T T E E ! ! E E T x m &.w.w.7.8.4.",
"0.8.8.1.,.2. .` b z z z z z m T T T T T E T T T c R #.6.q.0.0.8.",
"3.4.1.8.4...Y Y z z z z z b m T T T T T T T T T T T W @.e.e.e.e.",
">.:.:.8.5...z s z z z z z v m Y m T T T T m T T T T c ' &.e.0.0.",
"..;.>.,.4. .v y d z z z z v b m m m T m m m m m Y m v _ ..4.,.4.",
"2.>.>.2.%. .n d h f f y f f h f h h d h h h h h k z n ` ..>.,.,.",
"8.7.2.>.....{ F i 0 7 7 6 0 q q 0 4 7 7 0 5 0 7 8 y ` *.3.4.3.5.",
"8.4.*.+.....;.D r > % % % % = - ; % % & ; - ; > , y ..e.5.8.0.0.",
"2.2...2.2.2.,.H t > @ . @ X X X @ o @ o X X @ % , p  .9.r.r.t.t.",
";.......2.2.,.P B 0 % . . . @ .   . . . .   + % e S  .5.9.9.t.y.",
"......%.2.2.>.-.L V 1 X X X @   . . O O @ + + > C { ..%.%.%.e.r.",
"2.2.%.>.2.;.>.<.<.K q % X X @ X . O O O @ @ : w J 2.2.2.%.%.5.&.",
"3.3.2...>.>.>.4.9.} p , @ X * O O . . . X ; 7 C | q.0.9.%.%.%...",
"0.4.>.;.>.>.4.8.q. .h 6 $ X O O . @ + @ X - a D +.0.0.8.5.2.%. .",
"4.4.2.,.<.4.q.r.r.%.F e % . X X . @   @ @ 2 Z | :.,.,.,.4.5.2.2.",
"4.,.,.,.1.8.q.r.9.%.J C 3 % . . . . X * ; r H :.:.:.>.,.4.4.5.2.",
",.,.,.,.8.0.q.6.%...| G i > $ . . O O - 5 V P <.,.1.<.<.4.3.,.>.",
"4.4.3.4.8.9.7.+.+...%.{ g 9 % @ X O O 1 a D ;.4.4.4.4.4.4.<.:.:.",
"0.0.0.4.*.%.O.%.5.5.4.o.S u > # @ @ $ < C P :.<.,.4.1.4.4.4.,.>.",
"4.0.5.3.%.+.+.2.7.8.7.:.L C 0 # # + : 9 S | :.>.:.:.>.<.<.<.:.;.",
"5.2.%.2.2.*.5.4.8.8.<.7.3.L t & @ $ < p L >.3.2.........O.+...| ",
">.>.2.2.5.4.4.4.8.8.<.8.0.o.B 4 & > i S | 2.>.+. .......O.+...%.",
"..>.0.r.4.4.<.3.8.<.8.8.8.:.K N 4 4 A U +.2.....;.2.2.2.2.3.5.e.",
"..%.r.y.8.4.:.:.<.<.8.8.<.:.I A w r H ,.%.......2.2.2.2.2.5.e.t."
};
