/* XPM */
static char *mob[] = {
/* columns rows colors chars-per-pixel */
"32 32 216 2 ",
"   c #030304",
".  c #0B0606",
"X  c #090908",
"o  c #0B090A",
"O  c #130C0A",
"+  c #1B0F0F",
"@  c #0F1114",
"#  c #141112",
"$  c #1D1614",
"%  c #191618",
"&  c #1C1B1B",
"*  c #2A1B0C",
"=  c #2B1D15",
"-  c #251B18",
";  c #341F18",
":  c #1E201B",
">  c #23210F",
",  c #2E2312",
"<  c #2E271B",
"1  c #322418",
"2  c #392718",
"3  c #3E331F",
"4  c #1D1D21",
"5  c #221F22",
"6  c #1F2324",
"7  c #222323",
"8  c #2E2927",
"9  c #242328",
"0  c #29272B",
"q  c #2C2B2C",
"w  c #342B25",
"e  c #3C2D25",
"r  c #352D2C",
"t  c #31312D",
"y  c #3A342A",
"u  c #2E2E32",
"i  c #2F3332",
"p  c #333333",
"a  c #3F3434",
"s  c #3B3C3C",
"d  c #442A0F",
"f  c #452C17",
"g  c #47351C",
"h  c #5A3819",
"j  c #613D1E",
"k  c #402D20",
"l  c #423224",
"z  c #4C3522",
"x  c #4C3A25",
"c  c #41332C",
"v  c #4A352B",
"b  c #463829",
"n  c #573D29",
"m  c #4D3D33",
"M  c #6E471F",
"N  c #4F412A",
"B  c #58422B",
"V  c #4B4536",
"C  c #524435",
"Z  c #53433A",
"A  c #594A39",
"S  c #59503F",
"D  c #664727",
"F  c #754E27",
"G  c #79542C",
"H  c #644C37",
"J  c #6B4D35",
"K  c #6C5233",
"L  c #63513C",
"P  c #6C543A",
"I  c #7C5A34",
"U  c #765838",
"Y  c #7B643F",
"T  c #4A4844",
"R  c #574941",
"E  c #564B45",
"W  c #5E5346",
"Q  c #624E41",
"!  c #6A4F42",
"~  c #675544",
"^  c #6B5B4B",
"/  c #755D46",
"(  c #725848",
")  c #655852",
"_  c #6C6647",
"`  c #796544",
"'  c #77634E",
"]  c #717847",
"[  c #6D625A",
"{  c #736553",
"}  c #7A6758",
"|  c #716967",
" . c #78726E",
".. c #6F7171",
"X. c #7B7978",
"o. c #84582A",
"O. c #815C38",
"+. c #82633B",
"@. c #825F44",
"#. c #876848",
"$. c #916D49",
"%. c #88704F",
"&. c #9A764C",
"*. c #856A56",
"=. c #8C6C52",
"-. c #826C5C",
";. c #8B7356",
":. c #86745F",
">. c #927657",
",. c #9D7C54",
"<. c #93755C",
"1. c #9B7C5B",
"2. c #A07543",
"3. c #867566",
"4. c #937C67",
"5. c #847E78",
"6. c #8C8B45",
"7. c #8C815D",
"8. c #9C835F",
"9. c #A5825C",
"0. c #AA8C5D",
"q. c #B49058",
"w. c #A4A553",
"e. c #B8B958",
"r. c #9C8569",
"t. c #87847D",
"y. c #9A8472",
"u. c #A68766",
"i. c #B28C65",
"p. c #AB9166",
"a. c #B89367",
"s. c #A58A75",
"d. c #A9937D",
"f. c #BA9979",
"g. c #BFA37A",
"h. c #C78B53",
"j. c #CB9963",
"k. c #C99B6B",
"l. c #D39A63",
"z. c #D89B64",
"x. c #C19A71",
"c. c #C5A56C",
"v. c #CBA26D",
"b. c #D5A66E",
"n. c #C9A777",
"m. c #C4A17B",
"M. c #D3A671",
"N. c #DDA574",
"B. c #D4A974",
"V. c #DBAC75",
"C. c #D1A67E",
"Z. c #D4AB79",
"A. c #D9AC7B",
"S. c #D9B179",
"D. c #E2AB76",
"F. c #E3B47D",
"G. c #CAC95B",
"H. c #D7D85C",
"J. c #E1E469",
"K. c #FFFF6D",
"L. c #918B85",
"P. c #908E90",
"I. c #949395",
"U. c #989995",
"Y. c #AC9A8A",
"T. c #B69C83",
"R. c #BE9D83",
"E. c #BAA487",
"W. c #B0ABAE",
"Q. c #BCBABA",
"!. c #C3A283",
"~. c #C8A486",
"^. c #CCAB8A",
"/. c #D1AC86",
"(. c #D4AD8C",
"). c #DCAE8B",
"_. c #CEB18F",
"`. c #DAB686",
"'. c #D6B18D",
"]. c #DCB28D",
"[. c #CEB697",
"{. c #D5B593",
"}. c #DCB491",
"|. c #DEB993",
" X c #D3B898",
".X c #DCBD99",
"XX c #E0AE8A",
"oX c #E3B886",
"OX c #E5B48D",
"+X c #E9B78F",
"@X c #E6BA8E",
"#X c #E2B593",
"$X c #E4BC93",
"%X c #E8BC93",
"&X c #E4BE9A",
"*X c #EABE99",
"=X c #C3BFBD",
"-X c #DEC29C",
";X c #E6C197",
":X c #E9C196",
">X c #E4C39B",
",X c #E9C49B",
"<X c #E7C99F",
"1X c #E9C7A1",
"2X c #E6CCA4",
"3X c #EACBA3",
"4X c #E7CAAA",
"5X c #ECD1A5",
"6X c #EAD1AA",
"7X c #F0D1AE",
"8X c #F8D9B6",
"9X c #FFE2BF",
"0X c #DFDEDF",
"qX c #E5E5E7",
"wX c #F6F4F6",
"eX c #FFFEFE",
/* pixels */
"[. X>X<X$X{._..X2X>X;X|.f.A y.<X,X,X6X2X.X{..Xy.c Q 1X1X3X7X6X4X",
"[.{.;X$X~.` } T.>X;XOX3.A A ~ d.].;X2X-X(.f.<.e y./ 1X1X3X3X3X>X",
"-X|.@X%X,Xy.( <.@XOX=.l S x.#.} {.>X-X3.' u.U !.9X' 3X3X3X3X,X|.",
".X|.$X%X/.7Xg.$.+Xr.e 1 f.`.r.v ! } ^ :.|.J f.8X6X^ 3X7X3X<X;X$X",
"{.{.$X;Xr. X7X,.@X%.P 8.p.B.c.9.i.=.,.%Xn.P 1X8X^.~ ,X3X3X3X,X>X",
" X{.>X@X<.<.8X>.B >.S.V.Z.M.B.Z.D.A.Z.D.m.! 4X8X} -.%X:X,X<X<X-X",
"-X;X%X$Xm./ 1.E.C a.V.M.p.M.A.B.a.m.v.=.Q y.7X=.B +X+X@X%X;X;X$X",
"3X,X|.%X%XY.+.r.%.K I #.1 B U / Q p.N.Z.4X8X&.v +X+X@X%X;X%X;X$X",
"<X,X3.E E E L A %.7.[ L.P.U.I.qXW.1.D.A.!.p.n -.@X:X1X,X,X:X:X%X",
"|.m.8 s s s w y A W T P...U.qXeX5.i.D.A.9.2 { +X%X,X3X3X3X,X>X}.",
"E.<.8 i p t < 1.~.~.R.s.{ } t.[ m #.,.k.oXU :.+X+X%X,X1X1X>X&X>X",
"~.%.: : 0 5 ;.F.A.Z.oX%X`./.1.2 4.(.`.Z.A.;.z XX#X%X%X*X,X,X>X.X",
").u.O = = x a.b.M.M.b.B.b.B.k.a.XXXXV.B.A.,.g Z R Q / u.).$X#X$X",
"#Xm.= Y i.2 K k.B.M.M.Z.B.B.B.B.C.&.$.v.S.Y ..0XqXqX=X .) f.OX+X",
"*X$X3.H b.` , &.j.N.M.M.B.B.V.b.0.C 8 K v.< s Q.eXeXeXeXQ.T #X$X",
"1X&XT.; U n.' d I Z.M.B.B.V.q.D ) W.) $.P .     X.eXeXwXI.V ,X>X",
"&X#X].^ 2 2.&.J $.v.b.b.j.+.3 X.Q.L.#.@.+ & & #   W.eX ._ E.3X3X",
"#X).).^.L f g B +.#.+.D h * m ^ ~ D z $ 7 q t 7 . s Q.W E.>X3X2X",
"XX).].}.^.y.Q ^ <   @ O - 1 x 2 = & 5 p : & p q % # V ^ '.|.>X2X",
"#X#XOX].].).].].a   : 8 V %.e.6._ u u p & % p t % $ #.^ (.)..X>X",
"1X$X#X).XXOX+X@X$ X 6 q V e.H.G.w.] 0 p & & p 8 # & 9.L {.}.).}.",
"1X%XXXXXOX@X%X;X    7 t a J.K.K.e.y t t 4 & q & # o F L &X#X].).",
",X*X+XOXoX%X<X>Xx r 6 i a e.H.H.6.0 t p 7 % # o . . j P $X&X#X}.",
"*X+X+X+X@X,X2X>X0.` @ 9 5 w 8 p 7 7 7 6 X W i.8.8.z f *.#X*X*X#X",
"*X+XoX%X:X,X>X.XB 2 b D v e e k n H J I K B p.q.c.n f T.$X%X#X+X",
"*X+X%X%X;X,X-X^.d.C U z.j.j.j.j.j.l.z.z.h.F > g , = y.$X%X+XOXOX",
"1X,X*X$X$X}.'.'.{.^ B j.$.O.O.O.I G G D M o.= b C d.@X$X@X$XOXOX",
"1X,X*X$X{.].].OX|.C N &.r R m m m C V A 2 F 2 | E.OXOX@X%XOXOXOX",
"&X$X#X}.#X|.$X|./.A 3 x W d.m./.OX'.E.y.c j k s.XX).).).].`.).).",
"#X].OX}.%X$X,X%X~.W y * 4.;X%X+XoX+X@X@XW w { ).).).).).'.].).#X",
"#X#X,X,X*X%X@X#X$X'.'.`.%X%X#X@XoX@X%X$X#X}.(.).].#X#XXX}.$X&X>X",
"#X#X3X5X,X%XoX+X%X$X$X$X@X%X%X%X+X@X%X;X#X).).).#X#X#X#X#X*X1X4X"
};
