/* XPM */
static char *result[] = {
/* columns rows colors chars-per-pixel */
"32 32 30 1 ",
"  c #C6AD8C",
". c #DCAD8B",
"X c #CDB18E",
"o c #DDB18E",
"O c #D3B591",
"+ c #DDB491",
"@ c #DEB994",
"# c #DFBC98",
"$ c #E1AE8C",
"% c #E6B487",
"& c #E5B48D",
"* c #E9B78F",
"= c #E7B98E",
"- c #E8BA8F",
"; c #E2B592",
": c #E5BC93",
"> c #E8BD93",
", c #E3BE99",
"< c #E9BF98",
"1 c #E5C197",
"2 c #E8C196",
"3 c #E5C39B",
"4 c #E9C49B",
"5 c #E7C89E",
"6 c #E9C99E",
"7 c #E6C6A0",
"8 c #E9C7A0",
"9 c #E6C9A1",
"0 c #E9CBA2",
"q c #EAD0A5",
/* pixels */
" O12:>8q06:-8062:2q9+.;7888880qq",
"XO12:26862->60422209o.,788888008",
"@@=>2242>:>>242><309o.;<0qqqq83<",
"O@:2<22>==*>>2:>,33,$$;*88q008<:",
"XO22>>>>2:=>:<:<:+oo.$**:<480087",
"OO22-*>>:2:>;:#;+o..$$$*&*>27488",
",<>>::><<:<1:@...$$$;&$%%%%>><22",
"64>>><<22::;#o..$$**&&*$&*>>>22>",
"4422*=223#@o.$&&%%*=&$%*>2884<<>",
"422-:::21#o..&;-2222-*%&<400044<",
"::-2:::+oo;;*&=230006>*&*>400887",
"&%--<:+..$;:==22599352::*;<<<844",
".&&:;@..$&==2253,@+o@#13<:***:*:",
"&o&&oo..&*=2233#@+ooo##332;***;*",
"<1;&..$&=>433#oo+;###+o#308<>>><",
"2:@o$$&*:465#+oo;:33:+.o3008<444",
";;.o.;*:499,+o:3,2>>2;oo@1,37990",
".$.$;;*>497,.o3842>>2=oo+@###99q",
"..o+;;&=45,#o;404422>2,:++o+o@79",
";$.;;$*:65#@+;364248>>33:#++.+#3",
"><o..&%2691++;64><842>:23443@++.",
"6>&$&=<269#+o;22>,8882<>4442,;..",
">>&&=:5993@oo:=2280008<>=%&-,<@;",
">***=2593#ooo:=2488884<>&%%*<<;;",
"**&-2431+.oo::=-52222===--=>>>&%",
">>>>23##o.o==:=>222==%==-2::>=%&",
"424,@ooo#::===2252222=======2:*&",
"222,@oo+242>>>>222222===%%====%.",
":;&@@@;222-:42===222:=;+o...oo..",
"&;+;:<:22:>224-=%=22;&=o....oooo",
".+362===-2=22======2@o..o&$;+:#3",
".;8q2=&*-222==2=%%==+...;;;;;,50"
};
