/* XPM */
static char *result[] = {
/* columns rows colors chars-per-pixel */
"32 32 68 1 ",
"  c #3D2731",
". c #3F2831",
"X c #452B32",
"o c #4B2D33",
"O c #512F34",
"+ c #4E3135",
"@ c #533235",
"# c #5A3435",
"$ c #5C3837",
"% c #553639",
"& c #583638",
"* c #57393B",
"= c #5D3A39",
"- c #633736",
"; c #663837",
": c #683937",
"> c #613C3A",
", c #6B3B38",
"< c #733E39",
"1 c #63413F",
"2 c #6D413C",
"3 c #76433C",
"4 c #7C453C",
"5 c #76483F",
"6 c #7C483F",
"7 c #5D4242",
"8 c #614544",
"9 c #6C4D48",
"0 c #764C43",
"q c #7A4B42",
"w c #7E5247",
"e c #73524B",
"r c #7C554A",
"t c #80473D",
"y c #82493E",
"u c #854E41",
"i c #884D41",
"p c #865144",
"a c #8B5445",
"s c #805448",
"d c #8C5748",
"f c #8B5C4D",
"g c #935544",
"h c #955946",
"j c #985B47",
"k c #905E4D",
"l c #9B5E49",
"z c #9C614D",
"x c #9A6652",
"c c #9F6954",
"v c #A3624A",
"b c #AC674C",
"n c #AF6A4E",
"m c #B46C4F",
"M c #B96F4F",
"N c #AB6D53",
"B c #A36F58",
"V c #B86F50",
"C c #AE7256",
"Z c #AC745A",
"A c #B37154",
"S c #B97051",
"D c #BA7759",
"F c #B57B5E",
"G c #BC795A",
"H c #C07E5D",
"J c #C1805F",
"K c #C18160",
/* pixels */
"lvmSSSSVMMMVSDFZNbVVVVVVVSMSGHHK",
"pavbbbbbbbbbmCZBxjvbbbbbbbbnADHK",
"=,qagggagggghlxk03uggghgghghzNDH",
"X+,34tttttttyadw=&34tttt444ygzAG",
"XX#:<3<3<3<44upq%o;<<3<<<<<4ugmS",
" X#;<<<<<<<<<4u5@o-<<<<<<<<44gnV",
" X#;<<<<<<<<3tu3@o;,<<<<<<<<tgbV",
" X#;<<<<<<<<3tp5@o;<<<<<<<<<tgnV",
" X#;<<<<<<<<<ti5@o;<<<<<<<<<igbH",
" X#;<<<<<<<<4ti5@o;,<<<<<<<<yjbM",
" X#;<<<<<<<<3tp3@o;<<<<<<<<<tgbM",
" X#;<<<<<<<<3qu3@o;<<<<,<<<<tgbM",
" XO;;,,;<,;,<3u0@o#:,,,,,;,,tgbH",
" XoO#######--,52@XO#########,yvb",
"   XXXXXXXXXXO$$X XXXXXXXXXXO,yb",
"XXXXXXXXXXXXo+%%XXXXXXXXXXXo+,il",
"++==>>>>>=>>1187*$==>>>=>==110xx",
"+%25353455355qe91>2336555556wscB",
"+@266yyyyyyypafr>>5uyyyyyy6ydzCG",
"X@,6yyyyyyyyuafr>&3yyyytyyyydvAG",
"XX#,<3<333<3tya6$@:<33<43<<4yjmS",
" X@:<<<<<<<<<ty6+o-<<<<<<<<<yhbS",
" X#:<<<<<<<<3ty5@o;,<<<<<<<<ygbM",
" X#:<3<<<<<<3yp5@o-<<<<<<<<3ygbS",
" X#:<<<<<<<4<tp5Oo-<<<<<<<<<yyMH",
" X#:,<<<<<<<4ty5#o-<<<<<<<<<yjbH",
" o#:<<<<<<<34ty5OO-<<<<<<<<<tgbM",
" X@:<<<<<<<<<ta6Oo:<<<<<<<<<tyvH",
" XO-,,,,,::,,5y5@o#:::::::::tgbH",
" XOO########-252OXO########-<tvb",
"  XXXXXoXXXX+@>$X XXXXXXXXXXO<gb",
"       X    Xo#@X  X X   X Xo<yj"
};
