/* XPM */
static char *character3_png[] = {
/* columns rows colors chars-per-pixel */
"16 16 251 2 ",
"   c #7F5017",
".  c #7A551F",
"X  c #795225",
"o  c #7A522C",
"O  c #60513F",
"+  c #7A5335",
"@  c #7E573C",
"#  c #7C5845",
"$  c #7C664E",
"%  c #BD3C3F",
"&  c #885615",
"*  c #9E6413",
"=  c #9D6715",
"-  c #99641E",
";  c #A9681C",
":  c #B06D1B",
">  c #AC711E",
",  c #935E3B",
"<  c #8A6A3C",
"1  c #906936",
"2  c #93673D",
"3  c #9F7437",
"4  c #A56629",
"5  c #AE6C2D",
"6  c #A87129",
"7  c #A87529",
"8  c #A9752B",
"9  c #AB762B",
"0  c #B37D2B",
"q  c #AE6B30",
"w  c #A97534",
"e  c #C0780B",
"r  c #D33D40",
"t  c #884A41",
"y  c #8C5A46",
"u  c #805B48",
"i  c #905C43",
"p  c #995F54",
"a  c #AF5257",
"s  c #8A6742",
"d  c #866846",
"f  c #8D6A45",
"g  c #8B6648",
"h  c #8C654B",
"j  c #96664D",
"k  c #8E7043",
"l  c #99764F",
"z  c #9D774C",
"x  c #846E53",
"c  c #956B58",
"v  c #8B7155",
"b  c #86715A",
"n  c #967553",
"m  c #997457",
"M  c #927B56",
"N  c #977B5A",
"B  c #9B7D5C",
"V  c #A47747",
"C  c #AC7943",
"Z  c #A77B4C",
"A  c #A06154",
"S  c #B67F50",
"D  c #B94C64",
"F  c #887968",
"G  c #9C7D62",
"H  c #9C7E62",
"J  c #B36A6B",
"K  c #BA6F71",
"L  c #B77370",
"P  c #C44244",
"I  c #C94649",
"U  c #D6787A",
"Y  c #D27C7B",
"T  c #BF8426",
"R  c #BD8429",
"E  c #B48031",
"W  c #B58138",
"Q  c #B6823C",
"!  c #C2801A",
"~  c #D88D1C",
"^  c #DB9B2F",
"/  c #C28834",
"(  c #CB8832",
")  c #D99936",
"_  c #DD9F35",
"`  c #D09B3B",
"'  c #EFA123",
"]  c #EFA225",
"[  c #FBAD2C",
"{  c #FCAE2D",
"}  c #FEB12E",
"|  c #EDA731",
" . c #B8874C",
".. c #B58A48",
"X. c #B18654",
"o. c #B2895C",
"O. c #B5885C",
"+. c #BE9157",
"@. c #988065",
"#. c #9C8265",
"$. c #9D8464",
"%. c #89847E",
"&. c #948778",
"*. c #A38161",
"=. c #A28063",
"-. c #A28566",
";. c #A58568",
":. c #AB8D68",
">. c #B48D60",
",. c #B38C67",
"<. c #B88E66",
"1. c #B48D69",
"2. c #B08D6E",
"3. c #B28C6E",
"4. c #B78F6E",
"5. c #B59363",
"6. c #BE966E",
"7. c #AF9779",
"8. c #B09676",
"9. c #B39777",
"0. c #BC9570",
"q. c #BB9677",
"w. c #BE9476",
"e. c #B09C78",
"r. c #BC9E7A",
"t. c #C18D40",
"y. c #C69440",
"u. c #C79555",
"i. c #C0925E",
"p. c #D1A25F",
"a. c #D4867E",
"s. c #C09871",
"d. c #C09B72",
"f. c #C29E78",
"g. c #C29E7D",
"h. c #C49D7C",
"j. c #C5A07D",
"k. c #CBA27F",
"l. c #848587",
"z. c #85898A",
"x. c #9A9896",
"c. c #B6A896",
"v. c #AEA8A1",
"b. c #D48584",
"n. c #D88383",
"m. c #DE8C8D",
"M. c #D59F8A",
"N. c #E2908E",
"B. c #EB9190",
"V. c #C3A583",
"C. c #CAA687",
"Z. c #D0A784",
"A. c #DEAE8C",
"S. c #DFAE8D",
"D. c #D8B08C",
"F. c #DFB28D",
"G. c #DEB08E",
"H. c #DEB18F",
"J. c #DDB28E",
"K. c #DEB28E",
"L. c #DDB68F",
"P. c #D2B794",
"I. c #D6B794",
"U. c #DDB290",
"Y. c #D9B493",
"T. c #DFB691",
"R. c #DDB592",
"E. c #DAB794",
"W. c #D4B996",
"Q. c #D8B995",
"!. c #DBBA94",
"~. c #DFB994",
"^. c #E4AE80",
"/. c #E3B689",
"(. c #E1B28D",
"). c #E4B38E",
"_. c #E2B58C",
"`. c #E2B68D",
"'. c #E6B58E",
"]. c #E6B58F",
"[. c #E7B58F",
"{. c #E5B68E",
"}. c #E5B78E",
"|. c #E7B68E",
" X c #E0B390",
".X c #E0B391",
"XX c #E3B391",
"oX c #E2B392",
"OX c #E0B490",
"+X c #E1B490",
"@X c #E1B491",
"#X c #E3B591",
"$X c #E4B490",
"%X c #E1B694",
"&X c #E2B795",
"*X c #E4B694",
"=X c #E1B891",
"-X c #E0B992",
";X c #E1B893",
":X c #E5BA90",
">X c #E6BB93",
",X c #E3B995",
"<X c #E3BB95",
"1X c #E3BB96",
"2X c #E5B994",
"3X c #E3BD95",
"4X c #E0BC96",
"5X c #E6BC94",
"6X c #E6BE95",
"7X c #E6BF95",
"8X c #E5BF96",
"9X c #E6BE97",
"0X c #E7BF97",
"qX c #E8BB91",
"wX c #EABA91",
"eX c #E8BB92",
"rX c #E8BC93",
"tX c #E9BD93",
"yX c #EABC93",
"uX c #E8BE93",
"iX c #E9BE93",
"pX c #E8BD94",
"aX c #EABC95",
"sX c #EABD95",
"dX c #E9BE94",
"fX c #E9BF94",
"gX c #E8BF95",
"hX c #E9BF96",
"jX c #E3BF98",
"kX c #E8C096",
"lX c #E9C096",
"zX c #EAC096",
"xX c #E5C098",
"cX c #E6C299",
"vX c #E6C49A",
"bX c #E3C19C",
"nX c #E0C39D",
"mX c #E5C19D",
"MX c #E7C49C",
"NX c #E9C099",
"BX c #E8C29A",
"VX c #EAC59B",
"CX c #EBC69C",
"ZX c #EAC99F",
"AX c #F6C79C",
"SX c #EBC9A1",
"DX c #EACAA1",
"FX c #ECD0A6",
"GX c #F5D1AB",
"HX c #F6D2AC",
"JX c #CEC9C3",
/* pixels */
"W.xXNXDXZXL.$ < d.P.C.Y.I.-.7.FX",
"!.5XhXkXtXk.G V / W 6 w Q 1 @.CX",
"Q.6XeXpXfXj.s ) { ^ T ~ ] 9 H SX",
"vXuXrXgXlXg.8 } | e.v...y.M v 8X",
"VXiXqX7XjX,.! [ ` JXl.O &.z.F -X",
"2XqX>XT. XO.e ' _ c.x.k $.%.b 4X",
"#X{.OXA.].<.> t.+.N x , t h n 3.",
"9X+XS.).zXr.2 /.GXHXE.K D M.9.;.",
"@XG.XXZ.V.#.o S ^.AX=X4.j =.8.nX",
".XH.$Xh.*.X - p A i y c @ 2.R.bX",
"0X(.'.f.. & ( a.a % P J + :.1XU.",
"sX|.dX5.3 Z C N.U r I m.u B hX*X",
"aXqXcXp. .q.m L B.Y n.b.# 0.yX[.",
"BX3X~.u.E d   : 4 q 5 ; f `.:X_.",
",X;X<X6.0 R * 7 o.i.X.= z F.J.K.",
"%XMXgX}.s.>.l 1.wXgXD.g w.oX&XmX"
};
