/* XPM */
static char *character2_png[] = {
/* columns rows colors chars-per-pixel */
"16 16 251 2 ",
"   c #7F5017",
".  c #7A551F",
"X  c #7A5224",
"o  c #7B522C",
"O  c #60513F",
"+  c #7A5335",
"@  c #7E573B",
"#  c #7B5745",
"$  c #7A664F",
"%  c #BD3C3F",
"&  c #885716",
"*  c #9E6313",
"=  c #9D6716",
"-  c #99641E",
";  c #A9681C",
":  c #B06D1B",
">  c #AC711E",
",  c #935E3B",
"<  c #8B6A3C",
"1  c #906936",
"2  c #93673C",
"3  c #A56629",
"4  c #AE6C2D",
"5  c #A77529",
"6  c #AA722A",
"7  c #A9742A",
"8  c #AB762B",
"9  c #B27B2A",
"0  c #AE6B30",
"q  c #AA7633",
"w  c #A07638",
"e  c #C0780B",
"r  c #D33D40",
"t  c #884A41",
"y  c #8C5A46",
"u  c #805B48",
"i  c #905C43",
"p  c #995F54",
"a  c #AF5257",
"s  c #8A6642",
"d  c #876846",
"f  c #8A6947",
"g  c #8C654B",
"h  c #8F6C4B",
"j  c #96664D",
"k  c #8E7043",
"l  c #846E53",
"z  c #866E56",
"x  c #956B58",
"c  c #8B7155",
"v  c #957452",
"b  c #987651",
"n  c #997457",
"m  c #927B56",
"M  c #977B5A",
"N  c #957A5F",
"B  c #9B7B5B",
"V  c #99795D",
"C  c #9B7B5E",
"Z  c #A47747",
"A  c #AC7943",
"S  c #A06154",
"D  c #A17D51",
"F  c #B67F50",
"G  c #B94C64",
"H  c #897866",
"J  c #9B7D62",
"K  c #B36A6B",
"L  c #A27F63",
"P  c #BA6F71",
"I  c #B77370",
"U  c #C44244",
"Y  c #C94649",
"T  c #D6787A",
"R  c #D27C7B",
"E  c #BF8426",
"W  c #BD8429",
"Q  c #B48031",
"!  c #B58037",
"~  c #B6803A",
"^  c #C3801A",
"/  c #D88D1C",
"(  c #DB9B2F",
")  c #C28834",
"_  c #CB8832",
"`  c #D99936",
"'  c #DD9F35",
"]  c #D09B3B",
"[  c #EFA123",
"{  c #EFA225",
"}  c #FBAD2C",
"|  c #FCAE2D",
" . c #FEB12E",
".. c #EDA731",
"X. c #B58A48",
"o. c #BA8A4D",
"O. c #AB8050",
"+. c #B48956",
"@. c #B58B5A",
"#. c #B28A5D",
"$. c #B0895F",
"%. c #BE9157",
"&. c #9D8464",
"*. c #89847E",
"=. c #948778",
"-. c #A38160",
";. c #A28161",
":. c #A48467",
">. c #AA8561",
",. c #AE886D",
"<. c #AE8A6D",
"1. c #B78F60",
"2. c #B38B67",
"3. c #B88D63",
"4. c #B38E69",
"5. c #B28B6D",
"6. c #B78F6E",
"7. c #B88D68",
"8. c #B88D6B",
"9. c #AB8F70",
"0. c #B79473",
"q. c #B39676",
"w. c #BA9773",
"e. c #BF9E74",
"r. c #B09C78",
"t. c #BF9A79",
"y. c #BD997B",
"u. c #C18D40",
"i. c #C69440",
"p. c #CB9653",
"a. c #D39E59",
"s. c #C09460",
"d. c #D4867E",
"f. c #C39575",
"g. c #C39874",
"h. c #C19579",
"j. c #C19A7B",
"k. c #C09E7F",
"l. c #C2A27C",
"z. c #848587",
"x. c #85898A",
"c. c #9A9896",
"v. c #B6A896",
"b. c #AEA8A1",
"n. c #D48584",
"m. c #D88383",
"M. c #DE8C8D",
"N. c #D59F8A",
"B. c #E2908E",
"V. c #EB9190",
"C. c #CCAA89",
"Z. c #D4AD89",
"A. c #D3AD8C",
"S. c #D8AD8C",
"D. c #DDAF8F",
"F. c #DBB18D",
"G. c #DFB18C",
"H. c #DDB18E",
"J. c #DDB28E",
"K. c #DEB28E",
"L. c #D4B692",
"P. c #D6B792",
"I. c #DDB290",
"U. c #DCB591",
"Y. c #DDB592",
"T. c #DFB793",
"R. c #DAB794",
"E. c #D7BB97",
"W. c #DBBB97",
"Q. c #DCBD97",
"!. c #DFBD97",
"~. c #E4AE80",
"^. c #E3B689",
"/. c #E2B58C",
"(. c #E3B48F",
"). c #E7B58D",
"_. c #E7B58E",
"`. c #E7B58F",
"'. c #E8B38C",
"]. c #E9B68E",
"[. c #E0B88F",
"{. c #E5BA8F",
"}. c #E1B291",
"|. c #E1B392",
" X c #E0B693",
".X c #E1B694",
"XX c #E2B795",
"oX c #E4B694",
"OX c #E1B891",
"+X c #E1B893",
"@X c #E7B991",
"#X c #E6BA91",
"$X c #E7BA91",
"%X c #E7BA92",
"&X c #E3B995",
"*X c #E5BA95",
"=X c #E4BB96",
"-X c #E2BE95",
";X c #E7BD95",
":X c #E4BE96",
">X c #E7BF97",
",X c #EAB890",
"<X c #E8BA90",
"1X c #E9BB90",
"2X c #E8BB91",
"3X c #E8BA92",
"4X c #E8BB93",
"5X c #E9BC92",
"6X c #EABC92",
"7X c #EABD94",
"8X c #EABC95",
"9X c #EABD95",
"0X c #E8BD96",
"qX c #E8BF97",
"wX c #E2BF9A",
"eX c #E6BF9C",
"rX c #E8C095",
"tX c #EAC094",
"yX c #E9C196",
"uX c #E3C199",
"iX c #E2C19B",
"pX c #E7C299",
"aX c #E5C09A",
"sX c #E5C19D",
"dX c #E4C49D",
"fX c #E5C49D",
"gX c #E7C49C",
"hX c #E8C199",
"jX c #E8C298",
"kX c #E8C299",
"lX c #E8C399",
"zX c #E8C29A",
"xX c #E8C29B",
"cX c #E8C59C",
"vX c #E9C59C",
"bX c #E9C49D",
"nX c #E9C59E",
"mX c #E9C69E",
"MX c #E9C79F",
"NX c #F6C79C",
"BX c #E9C8A0",
"VX c #E9CAA2",
"CX c #E8CBA3",
"ZX c #EAC9A4",
"AX c #EACBA5",
"SX c #E9CCA5",
"DX c #EACCA4",
"FX c #E9CEA4",
"GX c #F5D1AB",
"HX c #F6D2AC",
"JX c #CEC9C3",
/* pixels */
"E.9.;.P.Q.Z.L.e.< $ A.eXAXZXSXFX",
"!.N 1 ~ q 6 ! ) Z J j.*XBXDXVXlX",
"W.V 8 { / E ( | ` s h._.<XkXmXMX",
"uXc m i.X.b.r... .7 f.'.).2XrXjX",
"-XH x.=.O z.JX] } ^ 3.].0XMXvXhX",
"F.z *.&.k c.v.' [ e 1.4X%XxXnXbX",
",.v g t , l M %.u.> 4.aX>X$X@X%X",
":.q.N.G P R.HXGX^.2 0.T.fXcXqXhX",
"S.<.L j 6.OXNX~.F o C y.C.wXdXCX",
"|.H.5.@ x y i S p - X -.k. XY.iX",
">X(.>.+ K U % a d._ & . l.pX+XI.",
"9X,XB u M.Y r T B.A O.w @.1X;XoX",
"8X6Xw.# n.m.R V.I n t.o.a.5X3X`.",
"zX:XU.f ; 4 0 3 :   d Q p.#X{./.",
"&X+X=XD = +.s.#.5 * W 9 7.G.J.K.",
".XgXyXg.h [.tX7X2.b $.8.D.}.XXsX"
};
