/* XPM */
static char *character4_png[] = {
/* columns rows colors chars-per-pixel */
"16 16 248 2 ",
"   c #583A1F",
".  c #7F4D0B",
"X  c #694516",
"o  c #77511A",
"O  c #755329",
"+  c #7B5A36",
"@  c #705438",
"#  c #824E0D",
"$  c #8A5708",
"%  c #845611",
"&  c #895112",
"*  c #8B5615",
"=  c #8A5917",
"-  c #8C5814",
";  c #81541F",
":  c #956317",
">  c #996418",
",  c #9F641B",
"<  c #A56306",
"1  c #A7660B",
"2  c #A9660C",
"3  c #B16F0F",
"4  c #BE7206",
"5  c #A06719",
"6  c #A76A1F",
"7  c #A97318",
"8  c #AA701D",
"9  c #B27216",
"0  c #B87414",
"q  c #B47519",
"w  c #B2731C",
"e  c #904D2A",
"r  c #835A2C",
"t  c #865D2C",
"y  c #935337",
"u  c #A55E36",
"i  c #A45C38",
"p  c #956621",
"a  c #906327",
"s  c #8E693C",
"d  c #9B733D",
"f  c #9D713C",
"g  c #AB7021",
"h  c #AC7224",
"j  c #A57028",
"k  c #A6722C",
"l  c #A0752F",
"z  c #B37723",
"x  c #B16235",
"c  c #B86932",
"v  c #AB7530",
"b  c #B27133",
"n  c #B47130",
"m  c #C37506",
"M  c #C87404",
"N  c #CB7505",
"B  c #C67908",
"V  c #D37E03",
"C  c #D67F03",
"Z  c #D37D07",
"A  c #D07E06",
"S  c #D47F05",
"D  c #D77F04",
"F  c #D27F09",
"G  c #C07E20",
"H  c #846849",
"J  c #916C4D",
"K  c #967042",
"L  c #997544",
"P  c #92724C",
"I  c #9A7549",
"U  c #9D7F5A",
"Y  c #A67C4A",
"T  c #A47C4E",
"R  c #B46159",
"E  c #A27D59",
"W  c #BF6360",
"Q  c #C0645E",
"!  c #C5695C",
"~  c #C86760",
"^  c #E17377",
"/  c #F37B7E",
"(  c #CD800E",
")  c #D78203",
"_  c #D58105",
"`  c #DA8303",
"'  c #DC8403",
"]  c #DD8304",
"[  c #DD8505",
"{  c #DF8405",
"}  c #D48309",
"|  c #D2820C",
" . c #D3810E",
".. c #CF8413",
"X. c #E18700",
"o. c #E08601",
"O. c #E28700",
"+. c #E38700",
"@. c #E28701",
"#. c #E38701",
"$. c #E48701",
"%. c #E38704",
"&. c #E18706",
"*. c #E28801",
"=. c #E58801",
"-. c #E29114",
";. c #DB9A2D",
":. c #A9825A",
">. c #B18D5B",
",. c #B18E6E",
"<. c #B78F71",
"1. c #AF9476",
"2. c #B39570",
"3. c #B79672",
"4. c #BE9671",
"5. c #BC9A76",
"6. c #BF9D7A",
"7. c #C19A72",
"8. c #C09C76",
"9. c #D4A56F",
"0. c #CEA57C",
"q. c #F77C80",
"w. c #F57D83",
"e. c #CBA180",
"r. c #CEA985",
"t. c #CEA987",
"y. c #CFAD8D",
"u. c #D3A782",
"i. c #D3A880",
"p. c #D6A980",
"a. c #D1AE86",
"s. c #D9AD83",
"d. c #DCAE8D",
"f. c #DAB084",
"g. c #D4B08D",
"h. c #D5B28E",
"j. c #D4B38E",
"k. c #DDB08B",
"l. c #DEB08B",
"z. c #DAB18C",
"x. c #DEB08E",
"c. c #DEB18F",
"v. c #DDB28E",
"b. c #DEB28E",
"n. c #DEB78F",
"m. c #D8B88E",
"M. c #DFB88C",
"N. c #D6B793",
"B. c #D5B794",
"V. c #DDB290",
"C. c #DBB591",
"Z. c #DDB592",
"A. c #DEB792",
"S. c #DFB792",
"D. c #DFB693",
"F. c #D4B996",
"G. c #D4B997",
"H. c #D8B995",
"J. c #DBBA94",
"K. c #DFBC95",
"L. c #E1B688",
"P. c #E1B28D",
"I. c #E2B58C",
"U. c #E1B48E",
"Y. c #E1B78F",
"T. c #E5B48E",
"R. c #E7B58F",
"E. c #E7B68E",
"W. c #E5B88F",
"Q. c #E7B88E",
"!. c #E5BA8F",
"~. c #E7BA8F",
"^. c #E8BB8F",
"/. c #E0B190",
"(. c #E1B291",
"). c #E0B391",
"_. c #E1B491",
"`. c #E3B491",
"'. c #E3B591",
"]. c #E2B691",
"[. c #E5B593",
"{. c #E1B694",
"}. c #E2B795",
"|. c #E4B694",
" X c #E1B892",
".X c #E1B893",
"XX c #E2B993",
"oX c #E7B990",
"OX c #E7B891",
"+X c #E7BA92",
"@X c #E6BB93",
"#X c #E7BD93",
"$X c #E3B995",
"%X c #E2BB95",
"&X c #E5B994",
"*X c #E3BD95",
"=X c #E0BD97",
"-X c #E5BC94",
";X c #E6BD94",
":X c #E7BD94",
">X c #E7BD95",
",X c #E6BE95",
"<X c #E6BE97",
"1X c #E7BF97",
"2X c #E8BA90",
"3X c #E8BB90",
"4X c #E8BB91",
"5X c #E8BA92",
"6X c #E9BC91",
"7X c #EABD91",
"8X c #E8BD93",
"9X c #E9BD93",
"0X c #E8BE92",
"qX c #E8BD95",
"wX c #EABC95",
"eX c #EABD95",
"rX c #E9BF94",
"tX c #E8BF95",
"yX c #EABF94",
"uX c #E8BF97",
"iX c #E6C197",
"pX c #EAC095",
"aX c #E8C096",
"sX c #E2C09A",
"dX c #E2C19B",
"fX c #E6C198",
"gX c #E7C198",
"hX c #E6C49A",
"jX c #E5C19D",
"kX c #E4C49D",
"lX c #E7C49C",
"zX c #E8C199",
"xX c #E8C298",
"cX c #E8C399",
"vX c #E8C29A",
"bX c #EAC59B",
"nX c #E9C49D",
"mX c #EBC49C",
"MX c #EAC69D",
"NX c #E9C69E",
"BX c #E9C79F",
"VX c #EAC69F",
"CX c #E9CAA2",
"ZX c #E8CBA3",
"AX c #EBCBA6",
"SX c #E9CCA5",
"DX c #E9CEA4",
"FX c #EBCEA6",
/* pixels */
"F.fX%XU L 6.B.j.h.G.5.K 2.AXSXDX",
"J.:XC.d | z j g h k G ..>.FXCXcX",
"H.,X@XT _ *.X.+.O.o.=.B :.mXNXBX",
"hXrXz.f F o.@.#.$.#.#.} Y Y.aXxX",
"bXyXs.w M N C ' 0 q A Z v N.MXzX",
"&X9X4.3 [ D ) 9 1.I 4 S 6 g.VXnX",
"'.OXJ < &.%.Z - s = ] { , u.5X+X",
"<X].<.+ 1 V ` m $ 5 2 . H K.uXzX",
"_.x.[.e.  e x c i y * @ y.sXkXZX",
").c.`.p.; W w./ q.^ b l t.D.Z.dX",
"1XP.T.f.p u ! ~ Q R n : a.gX.XV.",
"eXE.8Xm.t (  .& # 7 ;.a i.^.>X|.",
"wX4XiX=X,.> -.8 X % o E ~.3X5XR.",
"vX*XA.S.r.r 9.L.3.P O 0.Q.W.!.I.",
"$X.XXX-X;X8.n.6X7XM.7.U.l.k.v.b.",
"{.lXtXoXqXpX0X2XQ.#X Xd./.(.}.jX"
};
