/* XPM */
static char *exit_png[] = {
/* columns rows colors chars-per-pixel */
"16 16 237 2 ",
"   c #FC1613",
".  c #FB1813",
"X  c #FC1813",
"o  c #FB1814",
"O  c #F9241C",
"+  c #FA261E",
"@  c #F63B2D",
"#  c #F53D31",
"$  c #F64837",
"%  c #F64C3A",
"&  c #F84341",
"*  c #F34D41",
"=  c #F34F42",
"-  c #EF5746",
";  c #EF5949",
":  c #EE5A48",
">  c #F45A47",
",  c #F15F4B",
"<  c #F45E49",
"1  c #F45D4A",
"2  c #EE5E57",
"3  c #F2604C",
"4  c #EC6257",
"5  c #EF615A",
"6  c #EC6D5D",
"7  c #EF7F61",
"8  c #EB906F",
"9  c #EC9375",
"0  c #E7A47F",
"q  c #EAA57F",
"w  c #31ABF2",
"e  c #34ADF1",
"r  c #5EC2F0",
"t  c #62C3F0",
"y  c #DF9592",
"u  c #DD9E9B",
"i  c #DCAA89",
"p  c #DFAE8C",
"a  c #DDB08E",
"s  c #DCB18F",
"d  c #DEB08E",
"f  c #DFB18E",
"g  c #DEB28F",
"h  c #DDB48F",
"j  c #D2B590",
"k  c #D7B692",
"l  c #DCB192",
"z  c #DCB491",
"x  c #DFB690",
"c  c #DFB592",
"v  c #DEB692",
"b  c #DAB892",
"n  c #DBB99E",
"m  c #E3A182",
"M  c #E0A282",
"N  c #E4A183",
"B  c #E5A183",
"V  c #E4A482",
"C  c #ECA480",
"Z  c #E8A584",
"A  c #E7A884",
"S  c #E6AA84",
"D  c #E4A886",
"F  c #EBA882",
"G  c #EAA883",
"H  c #EAAC85",
"J  c #EAAD86",
"K  c #E5A58A",
"L  c #E5AC8E",
"P  c #E9AE88",
"I  c #E8AF89",
"U  c #E1B28D",
"Y  c #E0B18E",
"T  c #E2B38E",
"R  c #E3B38F",
"E  c #E1B78C",
"W  c #E0B48F",
"Q  c #E7B58C",
"!  c #E7B78D",
"~  c #E6B48E",
"^  c #E6B58F",
"/  c #E5B68F",
"(  c #E6B78F",
")  c #EAB08A",
"_  c #EAB38C",
"`  c #E7BA8F",
"'  c #E5AE91",
"]  c #E0B390",
"[  c #E2B390",
"{  c #E1B490",
"}  c #E3B492",
"|  c #E4B790",
" . c #E7B690",
".. c #E4B693",
"X. c #E5B195",
"o. c #E8B690",
"O. c #E1B893",
"+. c #E2B893",
"@. c #E7B991",
"#. c #E7BB90",
"$. c #E7BA91",
"%. c #E6BB93",
"&. c #E6BC91",
"*. c #E5BC92",
"=. c #E7BF93",
"-. c #E4BA95",
";. c #E7BA94",
":. c #E4B996",
">. c #E5BD94",
",. c #E6BD94",
"<. c #E4BF95",
"1. c #E6BF94",
"2. c #E6BE95",
"3. c #E8B990",
"4. c #E8B991",
"5. c #E8BA90",
"6. c #E8BA91",
"7. c #E8BB91",
"8. c #E8BA92",
"9. c #E8BB92",
"0. c #E8BD90",
"q. c #E8BC92",
"w. c #E8BC93",
"e. c #E9BC93",
"r. c #E9BD93",
"t. c #E8BE93",
"y. c #E9BE93",
"u. c #E8BF93",
"i. c #E8BD94",
"p. c #E8BE94",
"a. c #E8BF94",
"s. c #E8BF95",
"d. c #E8BD96",
"f. c #E9BE96",
"g. c #E8BF97",
"h. c #E9BF97",
"j. c #E0B698",
"k. c #E3BA9A",
"l. c #E1BE99",
"z. c #E2BD9B",
"x. c #E4BD99",
"c. c #E5BF99",
"v. c #DDBEA0",
"b. c #E2BEA1",
"n. c #E6C297",
"m. c #E8C095",
"M. c #E8C096",
"N. c #E8C197",
"B. c #E2C09A",
"V. c #E5C199",
"C. c #E7C198",
"Z. c #E7C499",
"A. c #E1C29E",
"S. c #E5C19D",
"D. c #E5C29D",
"F. c #E4C49D",
"G. c #E6C69E",
"H. c #E8C098",
"J. c #E8C198",
"K. c #E8C298",
"L. c #E8C299",
"P. c #E8C19A",
"I. c #E8C29A",
"U. c #E9C498",
"Y. c #E8C69B",
"T. c #E9C39C",
"R. c #E8C49C",
"E. c #E9C59C",
"W. c #E9C59E",
"Q. c #E9C69E",
"!. c #E9C79F",
"~. c #E9C89F",
"^. c #DDC0A2",
"/. c #DAC1B0",
"(. c #D9C0B2",
"). c #D9C7B6",
"_. c #D7C8B6",
"`. c #DAC9B7",
"'. c #DDCBB9",
"]. c #E2C2A1",
"[. c #E2C3A3",
"{. c #E3C5A3",
"}. c #E3C7A3",
"|. c #E9C7A1",
" X c #E9C9A0",
".X c #E9CAA1",
"XX c #E9C9A2",
"oX c #E9CBA2",
"OX c #E9CAA3",
"+X c #E9CCA1",
"@X c #EACCA4",
"#X c #E3CAAA",
"$X c #8EC1DD",
"%X c #8CC1DE",
"&X c #A4C8DB",
"*X c #ABC9D9",
"=X c #BECDD5",
"-X c #B5D4DE",
";X c #B0D3E0",
":X c #CEC1C4",
">X c #CFC1C4",
",X c #D3C4C3",
"<X c #D3C5C4",
"1X c #D6CBC3",
"2X c #D5CCC5",
"3X c #D8CDC4",
"4X c #D3CDC8",
"5X c #D4CFC9",
"6X c #DAD1C7",
"7X c #D3D2CA",
"8X c #D6D0C8",
"9X c #D4D3CA",
"0X c #D4D3CB",
"qX c #D2D3CD",
"wX c #DAD0CB",
"eX c #DBD2CC",
"rX c #DCD3CF",
"tX c #DCD4CF",
"yX c #C1CED4",
"uX c #CFD9D7",
"iX c #CFD8D9",
"pX c #D0D1D1",
"aX c gray82",
"sX c #D2D1D0",
"dX c #D3D1D0",
"fX c #D0D1D2",
"gX c #D0D2D2",
"hX c #D0D2D3",
"jX c #D4D1D0",
"kX c #D4D2D0",
"lX c #D5D2D1",
"zX c #D7D2D0",
"xX c #D2D7D1",
"cX c #D0D4D4",
"vX c #D0D5D5",
"bX c #D0D7D6",
"nX c #D1DAD5",
/* pixels */
"j <.f.~.Y.p.E._ ) G.z x.XX|.oX+X",
"b ,.h.M.q.8.C < 1 Z a -. X@X.XK.",
"k 2.9.i.a.P 3 X   ; m ^ 6.L.Q.Q.",
"n.t.w.s.C.' 5 & & 2 K ~ Q 7.m.N.",
"U.y.7.1.A._.,X>X:X<X`.:.d.!.E.H.",
"| 7.%.v n 3X-Xt r ;X6Xb.;.I.W.T.",
"T / W l /.wX*Xe w &XeX'.S.4.@.$.",
">.{ p j.1XkXyX$X%X=XlX8X#XR.g.J.",
"Y d [ k.2XpXjXrXtXkXfX4X^.l.F.OX",
"f g R z.0XgXsXzXzXdXhXqXv.c v B.",
"2.U S L xXiXaXaXaXaXiXnXX.o.O.s ",
"e.I 7 = y bXvXaXaXcXuXu * 7  ...",
"r.F % o 4 (.7X5X5X9X).6 . $ G ( ",
"Z.A # + 9 c.].[.{.}.V.8 O @ 0 E ",
"+.D , > J M.M.#.` =.*.V - : M h ",
"] P.H q 3.u.0.5.! &.x i N B } D."
};
