/* XPM */
static char *item_png[] = {
/* columns rows colors chars-per-pixel */
"16 16 235 2 ",
"   c #AB4B1E",
".  c #AE4E1D",
"X  c #AD4D1E",
"o  c #AD4C1F",
"O  c #AC4D1F",
"+  c #AD4D1F",
"@  c #AE4D1E",
"#  c #AD4E1F",
"$  c #AE4E1E",
"%  c #AE4F1F",
"&  c #B14F1D",
"*  c #B2501C",
"=  c #AA4C20",
"-  c #A94D22",
";  c #AB4F24",
":  c #AA5026",
">  c #AD5224",
",  c #AA5228",
"<  c #AB592F",
"1  c #AE592F",
"2  c #B15726",
"3  c #B45A28",
"4  c #AF5D31",
"5  c #AC6038",
"6  c #AF6038",
"7  c #AE6039",
"8  c #AE613B",
"9  c #AD633C",
"0  c #B46131",
"q  c #B56637",
"w  c #B86637",
"e  c #B06339",
"r  c #B0653A",
"t  c #B57349",
"y  c #B77348",
"u  c #B7744C",
"i  c #BA7549",
"p  c #BA774B",
"a  c #AD7758",
"s  c #B37450",
"d  c #B87C57",
"f  c #BC7E56",
"g  c #B28568",
"h  c #B28669",
"j  c #B1866A",
"k  c #B48D6D",
"l  c #B4906F",
"z  c #B08B72",
"x  c #B28E70",
"c  c #B38F70",
"v  c #B18C72",
"b  c #B08C73",
"n  c #B28C73",
"m  c #B38D74",
"M  c #B28F74",
"N  c #B58F75",
"B  c #B19174",
"V  c #B39075",
"C  c #B39076",
"Z  c #B49075",
"A  c #B59177",
"S  c #B79479",
"D  c #BA977A",
"F  c #B39C7F",
"G  c #B49C7F",
"H  c #B49D7F",
"J  c #B79D7E",
"K  c #BE9A7C",
"L  c #C68357",
"P  c #C28259",
"I  c #C48C66",
"U  c #C88E68",
"Y  c #CF9467",
"T  c #C09A7B",
"R  c #C19E7F",
"E  c #D09A72",
"W  c #D29C71",
"Q  c #D49E71",
"!  c #D89F73",
"~  c #D09C78",
"^  c #D19D78",
"/  c #D6A57F",
"(  c #B4A082",
")  c #B4A182",
"_  c #B4A283",
"`  c #B5A283",
"'  c #B2A284",
"]  c #B5A486",
"[  c #BBA182",
"{  c #B2A38B",
"}  c #B5A68B",
"|  c #B5A48D",
" . c #B5A68E",
".. c #B4A68F",
"X. c #BBA88B",
"o. c #B9A994",
"O. c #BAAC97",
"+. c #B4ADA1",
"@. c #B4ADA2",
"#. c #B2ADA5",
"$. c #C7AA87",
"%. c #C2A989",
"&. c #C7AD8F",
"*. c #D2AB87",
"=. c #DEA980",
"-. c #DBAC85",
";. c #D4AF8B",
":. c #D8AE8C",
">. c #DCAD8C",
",. c #DDAD8C",
"<. c #DDB086",
"1. c #D0B08E",
"2. c #DAB18B",
"3. c #DDB08B",
"4. c #DFB38D",
"5. c #DCB18F",
"6. c #DEB08E",
"7. c #DFB18E",
"8. c #DEB18F",
"9. c #DDB28E",
"0. c #DEB28E",
"q. c #DAB48E",
"w. c #DCB48D",
"e. c #DDB48D",
"r. c #DDB48E",
"t. c #DEB48E",
"y. c #DEB68E",
"u. c #D2B590",
"i. c #D6B590",
"p. c #D5B690",
"a. c #D6B691",
"s. c #D7B692",
"d. c #DEB490",
"f. c #DEB491",
"g. c #DEB591",
"h. c #DEB792",
"j. c #DEB693",
"k. c #DAB892",
"l. c #D8BB96",
"z. c #DFBB95",
"x. c #DEBA97",
"c. c #D4BC98",
"v. c #E2B085",
"b. c #E2B48A",
"n. c #E4B58B",
"m. c #E6B68A",
"M. c #E1B28D",
"N. c #E0B18E",
"B. c #E2B38E",
"V. c #E0B68D",
"C. c #E1B58E",
"Z. c #E1B48F",
"A. c #E0B68F",
"S. c #E2B68E",
"D. c #E4B48C",
"F. c #E4B48D",
"G. c #E7B58D",
"H. c #E5B78D",
"J. c #E6B78F",
"K. c #E8B68E",
"L. c #E5B98B",
"P. c #E5B88E",
"I. c #E4B98F",
"U. c #E7B88E",
"Y. c #E7BA8E",
"T. c #E8BB8F",
"R. c #E0B190",
"E. c #E1B190",
"W. c #E0B390",
"Q. c #E3B390",
"!. c #E1B590",
"~. c #E2B491",
"^. c #E2B691",
"/. c #E4B790",
"(. c #E4B593",
"). c #E2B795",
"_. c #E1B893",
"`. c #E2BA93",
"'. c #E6B990",
"]. c #E7BC92",
"[. c #E3BD95",
"{. c #E3BF97",
"}. c #E5BC94",
"|. c #E5BD94",
" X c #E6BD94",
".X c #E7BC95",
"XX c #E4BF95",
"oX c #E6BE95",
"OX c #E7BF95",
"+X c #E4BD96",
"@X c #E7BF97",
"#X c #E8BB90",
"$X c #E8BA91",
"%X c #E8BB91",
"&X c #E8BA92",
"*X c #E9BA92",
"=X c #EABB92",
"-X c #E9BC91",
";X c #E9BC92",
":X c #E8BD93",
">X c #E8BE93",
",X c #E9BD94",
"<X c #E8BF94",
"1X c #E8BF95",
"2X c #EABF94",
"3X c #E9BE96",
"4X c #E9BF97",
"5X c #E1BE98",
"6X c #DFC39C",
"7X c #E6C197",
"8X c #E6C297",
"9X c #E9C096",
"0X c #E8C197",
"qX c #E2C09A",
"wX c #E7C198",
"eX c #E5C29D",
"rX c #E7C49C",
"tX c #E5C59E",
"yX c #E7C79E",
"uX c #E8C098",
"iX c #E8C198",
"pX c #E8C298",
"aX c #E9C498",
"sX c #E8C69B",
"dX c #E8C49C",
"fX c #E9C49D",
"gX c #E9C69E",
"hX c #EAC99F",
"jX c #EAC7A1",
"kX c #E9CAA1",
"lX c #E9C9A2",
"zX c #E9CAA2",
"xX c #E9CBA2",
"cX c #E9CCA1",
"vX c #E9CCA4",
/* pixels */
"u.XX3XhXsXe.i.p.a.c.1.x.lXjXxXcX",
"k. X4XOX2.T D [ X.O.o.&.6XvXkXpX",
"s.oX;XA.K n M F ..#.#.| $.{.gXgX",
"8X>X,Xr.A z V G  .+.@.{ J y.9X0X",
"aX2X'.*.Z v V H ] } } ' ( l.dXuX",
"/.-Xt.S b m C G ` ` _ _ ) %.qXfX",
"B.J.:.N j g h k c x l c B R C.$X",
"|.!.,.~ t 5 6 q e 7 q r a ;.@XiX",
"N.6.~.=.p > X # O % X , d q.tXzX",
"7.8.Q.D.W 0 .   @ & = 8 ^ f.j.qX",
"oXM.F.OXw.s ; * +   2 P V.wX_.5.",
"=XK.].yXz.I 1 $ o + w ! m.Y..X(.",
"*X%X7X5Xd./ u : . 3 L v.T.#X&XG.",
"0X[.h.g.+XS.U 4 - 9 E n.H.P.I.b.",
"^._.`.}.1X1X<.i < f -.Z.3.3.9.0.",
"W.rX<XU.:X<XL.Y y Q 4.>.R.E.).eX"
};
