/* XPM */
static char *mob_png[] = {
/* columns rows colors chars-per-pixel */
"16 16 253 2 ",
"   c #191818",
".  c #201915",
"X  c #231E1B",
"o  c #25201E",
"O  c #2A231E",
"+  c #201E21",
"@  c #201F21",
"#  c #212221",
"$  c #272220",
"%  c #222325",
"&  c #272526",
"*  c #2A292A",
"=  c #2A2A2B",
"-  c #2C2B28",
";  c #2F2E2A",
":  c #2E2F2E",
">  c #332A23",
",  c #332D27",
"<  c #302E29",
"1  c #483725",
"2  c #503F2F",
"3  c #49422C",
"4  c #4E472C",
"5  c #52412F",
"6  c #4C4932",
"7  c #554634",
"8  c #584335",
"9  c #5C4831",
"0  c #5C4832",
"q  c #574839",
"w  c #5E4E3A",
"e  c #575237",
"r  c #644424",
"t  c #6B5033",
"y  c #61513B",
"u  c #665238",
"i  c #66513E",
"p  c #6D523A",
"a  c #745434",
"s  c #795835",
"d  c #725439",
"f  c #765A39",
"g  c #76593B",
"h  c #725E3A",
"j  c #715A3E",
"k  c #79593F",
"l  c #7A5D3C",
"z  c #756C39",
"x  c #4B4B4C",
"c  c #534C45",
"v  c #5E4F42",
"b  c #524F51",
"n  c #6D5542",
"m  c #765D41",
"M  c #715F4D",
"N  c #6A5E50",
"B  c #7F6145",
"V  c #7F6244",
"C  c #77644F",
"Z  c #78604A",
"A  c #78624C",
"S  c #7B7C44",
"D  c #756450",
"F  c #776A5E",
"G  c #796F67",
"H  c #805E41",
"J  c #806241",
"K  c #866141",
"L  c #8F6843",
"P  c #896944",
"I  c #876F4E",
"U  c #886D48",
"Y  c #9B754C",
"T  c #876D52",
"R  c #876D54",
"E  c #826D5A",
"W  c #8E7359",
"Q  c #957957",
"!  c #967957",
"~  c #93765F",
"^  c #92795B",
"/  c #96785C",
"(  c #987C5C",
")  c #9D7D5F",
"_  c #A57E55",
"`  c #897764",
"'  c #84786D",
"]  c #8A7968",
"[  c #967960",
"{  c #947B62",
"}  c #977E63",
"|  c #997C62",
" . c #9D7F66",
".. c #9E7F67",
"X. c #858343",
"o. c #868748",
"O. c #A4815D",
"+. c #A6845D",
"@. c #A6865D",
"#. c #A8855D",
"$. c #AF8A5E",
"%. c #BC8F5F",
"&. c #9B8162",
"*. c #9C8265",
"=. c #99816A",
"-. c #9D8369",
";. c #84817D",
":. c #93897E",
">. c #A08362",
",. c #A08166",
"<. c #A68666",
"1. c #A6896B",
"2. c #A0886E",
"3. c #A4886F",
"4. c #A98A68",
"5. c #A98B6F",
"6. c #B38E64",
"7. c #B2906C",
"8. c #BD9569",
"9. c #BC966C",
"0. c #BD976F",
"q. c #A68B70",
"w. c #A78F74",
"e. c #A48E7A",
"r. c #AA9473",
"t. c #AD9A7E",
"y. c #B29075",
"u. c #B49175",
"i. c #BB9373",
"p. c #B49779",
"a. c #B3997C",
"s. c #B6997E",
"d. c #B89A7A",
"f. c #BA9E7B",
"g. c #BF9F7B",
"h. c #BF997C",
"j. c #BB9C7D",
"k. c #BD9C7C",
"l. c #C29C6B",
"z. c #C69E6C",
"x. c #C49A70",
"c. c #C29D77",
"v. c #C19D79",
"b. c #C09E7E",
"n. c #D1A66F",
"m. c #CBA271",
"M. c #CDA274",
"N. c #D0A073",
"B. c #D5AB74",
"V. c #D7AB74",
"C. c #D8A873",
"Z. c #D9AB74",
"A. c #DEDE62",
"S. c #AC9989",
"D. c #BB9C80",
"F. c #B99F83",
"G. c #A19B94",
"H. c #B4A9A0",
"J. c #B3B1B0",
"K. c #C7A687",
"L. c #CBA582",
"P. c #CBA782",
"I. c #C8A787",
"U. c #CEA987",
"Y. c #C9AB88",
"T. c #CEAA8A",
"R. c #D0A882",
"E. c #D0AB86",
"W. c #D8AC87",
"Q. c #D4A788",
"!. c #D1AC89",
"~. c #DCAF8C",
"^. c #D4B18C",
"/. c #D8B18B",
"(. c #DEB08B",
"). c #D9B38C",
"_. c #DAB38E",
"`. c #DDB18E",
"'. c #DDB28E",
"]. c #DEB28E",
"[. c #DFB48C",
"{. c #D6B691",
"}. c #D4B496",
"|. c #DDB391",
" X c #DBB792",
".X c #DDB591",
"XX c #DCB790",
"oX c #DFB792",
"OX c #D4B996",
"+X c #D9B990",
"@X c #DCB892",
"#X c #DEB993",
"$X c #D9B995",
"%X c #DCBB95",
"&X c #DBBE99",
"*X c #DCBC99",
"=X c #E1B28D",
"-X c #E2B58C",
";X c #E0B78D",
":X c #E1B68F",
">X c #E7B68E",
",X c #E7B68F",
"<X c #E9B98F",
"1X c #E0B191",
"2X c #E1B291",
"3X c #E0B391",
"4X c #E2B592",
"5X c #E1B694",
"6X c #E2B795",
"7X c #E5B794",
"8X c #E1B893",
"9X c #E2BA93",
"0X c #E7B990",
"qX c #E5BA90",
"wX c #E6B992",
"eX c #E4BB92",
"rX c #E6BC92",
"tX c #E3B995",
"yX c #E4BB94",
"uX c #E5BB95",
"iX c #E3BD95",
"pX c #E3BF97",
"aX c #E4BD96",
"sX c #E5BF96",
"dX c #E7BF97",
"fX c #E8BB91",
"gX c #E9BB91",
"hX c #E8BD93",
"jX c #EABC95",
"kX c #EABD95",
"lX c #E8BF95",
"zX c #E3BF99",
"xX c #E3BF9A",
"cX c #DFC39E",
"vX c #E7C197",
"bX c #E8C095",
"nX c #E2C199",
"mX c #E2C19B",
"MX c #E5C198",
"NX c #E5C39A",
"BX c #E5C19D",
"VX c #E5C39C",
"CX c #E7C39C",
"ZX c #E7C49C",
"AX c #E8C29A",
"SX c #E8C49C",
"DX c #EAC79F",
"FX c #E5C8A0",
"GX c #E7CBA2",
"HX c #EACBA2",
"JX c #EACDA6",
"KX c #CDCDCE",
"LX c #E6E5E5",
/* pixels */
"OXpXb.a.nXk.C 2.xXcXK.{ E *XJXGX",
"%XeXI.1.v.n ( W 3.w.&.d.F.&XHXMX",
"$XXXj.f.! #.m.l.6.0.<.}.q.@XDXVX",
"NX).5.^ I +.Q 4.7.x.s.,.i.fXbXsX",
"Y.N c q D G ;.J.e.N.>./ uXDXSXaX",
" .< ; T c.g.r.] | M.O.) W.#XCXzX",
"u.2 9 _ C.V.B.z.9.8.@.' H.S.D.:X",
" XR U f %.Z.n.$.` Z 0 x KXLX:.^.",
"4Xy.j t P Y a v F 8 $   b G.t.FX",
"3X`.h.[ > X 4 z 3 = # * o M T.mX",
"dX=X,XE.O % o.A.S : @ + . m !.|.",
"kX>XhX+Xy & e X.6 - , w 1 p _.7X",
"jXfXvX{.A d H k K L s h u ..wX,X",
"AXiXoX.X} l B V J g r 5 -.[.qX-X",
"tX8X9XyX*.7 =.L.R.p.i ~ ~.(.'.].",
"5XZXlX0X/.P.;XgX<XrXU.Q.1X2X6XBX"
};
