/* XPM */
static char *tile_png[] = {
/* columns rows colors chars-per-pixel */
"16 16 207 2 ",
"   c #DCAD8C",
".  c #DEAE8C",
"X  c #DEAF8C",
"o  c #DFAE8D",
"O  c #DDB08B",
"+  c #DCB18F",
"@  c #DDB18F",
"#  c #DEB08E",
"$  c #DEB18E",
"%  c #DFB18E",
"&  c #DEB18F",
"*  c #DDB28E",
"=  c #DEB28E",
"-  c #D2B590",
";  c #D7B692",
":  c #DEB390",
">  c #DFB391",
",  c #DCB490",
"<  c #DDB591",
"1  c #DEB491",
"2  c #DEB591",
"3  c #DFB591",
"4  c #DFB690",
"5  c #DDB592",
"6  c #DEB592",
"7  c #DEB792",
"8  c #DAB892",
"9  c #DFB994",
"0  c #DFB995",
"q  c #DFBA95",
"w  c #E1AF8C",
"e  c #E0AF8D",
"r  c #E7B28B",
"t  c #E2B48A",
"y  c #E1B28D",
"u  c #E1B08E",
"i  c #E0B18E",
"p  c #E2B38E",
"a  c #E3B38E",
"s  c #E2B38F",
"d  c #E4B18D",
"f  c #E6B18C",
"g  c #E4B38D",
"h  c #E1B48E",
"j  c #E0B48F",
"k  c #E5B48D",
"l  c #E6B48D",
"z  c #E7B48D",
"x  c #E7B58D",
"c  c #E5B78C",
"v  c #E7B78D",
"b  c #E5B68F",
"n  c #E7B78E",
"m  c #E8B68E",
"M  c #E6B88D",
"N  c #E7B88D",
"B  c #E5B88E",
"V  c #E4B98F",
"C  c #E7B88E",
"Z  c #E7BA8E",
"A  c #E7BA8F",
"S  c #E0B190",
"D  c #E1B190",
"F  c #E0B390",
"G  c #E2B391",
"H  c #E0B490",
"J  c #E1B490",
"K  c #E3B590",
"L  c #E1B790",
"P  c #E2B691",
"I  c #E0B592",
"U  c #E0B692",
"Y  c #E1B793",
"T  c #E4B790",
"R  c #E6B790",
"E  c #E4B593",
"W  c #E2B795",
"Q  c #E1B893",
"!  c #E2BA93",
"~  c #E7B990",
"^  c #E7B991",
"/  c #E5BB90",
"(  c #E5BA91",
")  c #E7BB90",
"_  c #E7BA91",
"`  c #E7BB91",
"'  c #E7BA92",
"]  c #E6BB93",
"[  c #E6BC91",
"{  c #E7BC91",
"}  c #E5BC93",
"|  c #E6BC92",
" . c #E7BC92",
".. c #E7BC93",
"X. c #E7BD93",
"o. c #E7BF93",
"O. c #E0B894",
"+. c #E2BA95",
"@. c #E0BB96",
"#. c #E4BA95",
"$. c #E3BD95",
"%. c #E0BC97",
"&. c #E2BD96",
"*. c #E1BE97",
"=. c #E5BC94",
"-. c #E5BD94",
";. c #E4BC95",
":. c #E6BD94",
">. c #E7BC95",
",. c #E4BF95",
"<. c #E7BE94",
"1. c #E7BF94",
"2. c #E6BE95",
"3. c #E6BF95",
"4. c #E7BF95",
"5. c #E4BC96",
"6. c #E4BC97",
"7. c #E4BE97",
"8. c #E7BF96",
"9. c #E7BF97",
"0. c #E8BA90",
"q. c #E8BB90",
"w. c #E8BA91",
"e. c #E8BB91",
"r. c #E8BA92",
"t. c #E9BA92",
"y. c #E8BB92",
"u. c #EABB92",
"i. c #E8BC90",
"p. c #E8BD90",
"a. c #E8BC92",
"s. c #E8BD92",
"d. c #E8BC93",
"f. c #E8BD93",
"g. c #E8BE93",
"h. c #E9BE93",
"j. c #E8BD94",
"k. c #E8BE94",
"l. c #E8BF94",
"z. c #E8BE95",
"x. c #E8BF95",
"c. c #E8BE96",
"v. c #E9BE96",
"b. c #E8BF97",
"n. c #E9BF97",
"m. c #E1BF99",
"M. c #E3BF98",
"N. c #E4BD99",
"B. c #E4BE99",
"V. c #E6C197",
"C. c #E7C197",
"Z. c #E6C297",
"A. c #E8C095",
"S. c #E8C195",
"D. c #E8C096",
"F. c #E8C197",
"G. c #E8C296",
"H. c #E2C09A",
"J. c #E2C19B",
"K. c #E3C19B",
"L. c #E4C199",
"P. c #E6C098",
"I. c #E6C198",
"U. c #E7C099",
"Y. c #E4C39C",
"T. c #E5C29D",
"R. c #E4C49D",
"E. c #E5C49D",
"W. c #E7C49C",
"Q. c #E7C69D",
"!. c #E7C79D",
"~. c #E5C69E",
"^. c #E7C79E",
"/. c #E8C098",
"(. c #E8C198",
"). c #E8C199",
"_. c #E9C199",
"`. c #E8C298",
"'. c #E8C299",
"]. c #E8C399",
"[. c #E9C39A",
"{. c #E8C29B",
"}. c #E9C498",
"|. c #E8C49A",
" X c #E9C49B",
".X c #E8C69B",
"XX c #E9C39C",
"oX c #E8C59C",
"OX c #E9C59C",
"+X c #E8C49D",
"@X c #E8C59D",
"#X c #E8C69C",
"$X c #E9C79D",
"%X c #E9C59E",
"&X c #E9C69E",
"*X c #E9C79F",
"=X c #E9C89F",
"-X c #E9C7A0",
";X c #E9C7A1",
":X c #E6C8A0",
">X c #E9C9A0",
",X c #E9CAA1",
"<X c #E9C9A2",
"1X c #E9CBA2",
"2X c #E9CAA3",
"3X c #E9CCA1",
"4X c #EACCA4",
/* pixels */
"- ,.v.=X.Xf.$X]._.:X, N.<X;X1X3X",
"8 :.n.D.a.y.D.8.U.K.@ #.>X4X,X`.",
"; 2.y.j.f...=.+.3 # e l w.'.&X&X",
"Z.g.d.x.4.;.U X w d f r x e.A.F.",
"}.h.e.3.&.> u k )  .n z c.*XOX/.",
"T e.] 3 $ K R k.Q.~.I.~ ' {.%XXX",
"p b H . g { V.L.q 5 9 M.9.^ ^ _ ",
"-.J o a <.W.@.1 Y 6.Q < E.oXb.(.",
"i # G ^ .XY.1 B.).k.} : 0 m.R.2X",
"% & s ^ #X%.I +X[.'.1.7.O.6 6 H.",
"2.y g x.^.0 U C./.&X'.4.C.P.Q + ",
"u.m  .!.J.< L X. X-X@Xz.N Z >.E ",
"t.e.V.*.: j / s.|.A.` A A q.r.x ",
"F.$.7 2 5.| ` k.G.S.i.M c B V t ",
"P Q ! =.x.k.D.0.A o.( h O O * = ",
"F W.l.C f.g.p.0.v [ 4   S D W T."
};
