/* XPM */
static char *wall_png[] = {
/* columns rows colors chars-per-pixel */
"16 16 130 2 ",
"   c #3E2731",
".  c #3F2731",
"X  c #402831",
"o  c #412831",
"O  c #422831",
"+  c #422931",
"@  c #432931",
"#  c #402832",
"$  c #422932",
"%  c #432932",
"&  c #432A32",
"*  c #442A32",
"=  c #452B32",
"-  c #452B33",
";  c #4C2E34",
":  c #4C2F34",
">  c #4D2F34",
",  c #503035",
"<  c #503135",
"1  c #513135",
"2  c #523235",
"3  c #523236",
"4  c #543034",
"5  c #553134",
"6  c #593234",
"7  c #5A3335",
"8  c #583537",
"9  c #593737",
"0  c #5F3536",
"q  c #573638",
"w  c #5A3838",
"e  c #5B3838",
"r  c #5D3B3B",
"t  c #603536",
"y  c #613636",
"u  c #603637",
"i  c #623736",
"p  c #633737",
"a  c #673836",
"s  c #683836",
"d  c #683837",
"f  c #693937",
"g  c #6A3A37",
"h  c #623D3B",
"j  c #653E3B",
"k  c #693A38",
"l  c #683F3B",
"z  c #6D3E3A",
"x  c #6E3F3A",
"c  c #713D39",
"v  c #723D38",
"b  c #723D39",
"n  c #723E39",
"m  c #733E39",
"M  c #743E39",
"N  c #753E39",
"B  c #743F39",
"V  c #753F39",
"C  c #743E3A",
"Z  c #753F3A",
"A  c #6A413B",
"S  c #69403C",
"D  c #6A403C",
"F  c #6A413C",
"G  c #6B413C",
"H  c #6A413D",
"J  c #77403A",
"K  c #73433D",
"L  c #75473F",
"P  c #76473E",
"I  c #7B463D",
"U  c #7B473E",
"Y  c #7D453C",
"T  c #7D453D",
"R  c #7E463C",
"E  c #7F463D",
"W  c #7E483F",
"Q  c #7F493F",
"!  c #6D4641",
"~  c #664946",
"^  c #764F46",
"/  c #7B4A40",
"(  c #7C4A40",
")  c #7C4B40",
"_  c #7E4B41",
"`  c #7E4C41",
"'  c #7F4C41",
"]  c #80473D",
"[  c #814A3F",
"{  c #834A3E",
"}  c #824A3F",
"|  c #844B3F",
" . c #854B3F",
".. c #894E40",
"X. c #8A4E40",
"o. c #8A4F41",
"O. c #8B4F41",
"+. c #8C4F41",
"@. c #8C5041",
"#. c #8D5042",
"$. c #8E5142",
"%. c #8C5345",
"&. c #85584B",
"*. c #8C5C4D",
"=. c #925746",
"-. c #935947",
";. c #945A47",
":. c #975B47",
">. c #985E4B",
",. c #9E614D",
"<. c #9C6853",
"1. c #A1644C",
"2. c #AD684D",
"3. c #AF684D",
"4. c #AF694D",
"5. c #B16B4E",
"6. c #B26B4E",
"7. c #B36B4E",
"8. c #B36C4E",
"9. c #B26C4F",
"0. c #B36C4F",
"q. c #B46C4E",
"w. c #B46C4F",
"e. c #B56D4F",
"r. c #AC755B",
"t. c #B67254",
"y. c #B67658",
"u. c #BB7758",
"i. c #BB785A",
"p. c #C1805F",
/* pixels */
"-.2.0.6.5.6.t.r.1.4.0.6.5.9.i.p.",
"8 U O.X...X.=.*.H [ O.....o.,.u.",
". 0 m m b b T ( , d M m b v @.q.",
"$ 0 m m n b Y ( 1 s M m b b +.7.",
"+ u M M m M R ) 1 f V m m m +.8.",
"$ y N M M M E ` 1 k Z M m M #.w.",
"X 4 y y y t z P ; 6 i y t t W 3.",
"# * = = = * : q - & = = = % w ;.",
"3 j G F F D ! ~ r l G F A S ^ <.",
"< K | | { { %.&.h I  .| { } >.y.",
"$ y Z Z B B ] ' 2 g J Z C M $.e.",
"o 0 b n c v Y / , a m n c b O.7.",
"+ u M M m M R ) 1 f V m m m +.8.",
"+ y M M m M E _ 1 k Z M m M #.q.",
"X 5 i i i y x L > 7 p i y y Q 4.",
"  o @ + + O ; 9 & X @ + $ X e :."
};
