/* XPM */
static char *result[] = {
/* columns rows colors chars-per-pixel */
"32 32 173 2 ",
"   c #E68236",
".  c #EB8A37",
"X  c #E5903D",
"o  c #F5A13C",
"O  c #E48A42",
"+  c #E69446",
"@  c #EFA844",
"#  c #EAAA4D",
"$  c #F2AC4C",
"%  c #F9B243",
"&  c #F7B54D",
"*  c #F8B74E",
"=  c #EEA154",
"-  c #E9AD56",
";  c #EEA35A",
":  c #F4B356",
">  c #F3BD53",
",  c #F8BD53",
"<  c #EA9E65",
"1  c #E89D69",
"2  c #DFA67C",
"3  c #EDA163",
"4  c #EAA36D",
"5  c #EEAA6D",
"6  c #ECB661",
"7  c #EFB86B",
"8  c #F0BC6C",
"9  c #E4A474",
"0  c #E8A673",
"q  c #EBAA74",
"w  c #E4A97B",
"e  c #E9AC7A",
"r  c #EBB37D",
"t  c #F4C85E",
"y  c #ECC16C",
"u  c #F4CD65",
"i  c #F1C36D",
"p  c #F3CB6C",
"a  c #F6D364",
"s  c #F5D26B",
"d  c #ECC37C",
"f  c #ECC87B",
"g  c #F1CF7C",
"h  c #EFD17E",
"j  c #F4D170",
"k  c #F3D47C",
"l  c #F5D878",
"z  c #5CA6BD",
"x  c #5CA8BF",
"c  c #6CAABB",
"v  c #77A7B3",
"b  c #7BA7B1",
"n  c #73ACB7",
"m  c #7EADB4",
"M  c #71ABB8",
"N  c #7CB2BC",
"B  c #37A2CB",
"V  c #47A5C5",
"C  c #4BA4C4",
"Z  c #4FA8C7",
"A  c #4DA9CE",
"S  c #55AAC7",
"D  c #5DAAC5",
"F  c #44A7D1",
"G  c #6AAEC0",
"H  c #6FB6DA",
"J  c #78B7D5",
"K  c #9D9895",
"L  c #A7918A",
"P  c #AC928A",
"I  c #AE988C",
"U  c #B49B8C",
"Y  c #BD9F8B",
"T  c #A59B94",
"R  c #AEA094",
"E  c #B7AD9B",
"W  c #B5B29F",
"Q  c #BCB49D",
"!  c #8CA5A7",
"~  c #98ABA7",
"^  c #93ACAA",
"/  c #97B2AD",
"(  c #9BB2AB",
")  c #87ACB2",
"_  c #83B1B5",
"`  c #8DB3B4",
"'  c #8DB3B8",
"]  c #95B5B2",
"[  c #A3ADA3",
"{  c #ABAEA1",
"}  c #ACBAAD",
"|  c #B3B4A2",
" . c #BBB7A2",
".. c #B5BBA9",
"X. c #A8B2B0",
"o. c #ADBAB4",
"O. c #C09E8B",
"+. c #C8A68A",
"@. c #C6AD8C",
"#. c #CDAF8E",
"$. c #DDA784",
"%. c #DDAC85",
"&. c #D1A388",
"*. c #D3AA8C",
"=. c #DCAD8B",
"-. c #CDB18E",
";. c #D7B48F",
":. c #DDB18E",
">. c #C4AD94",
",. c #D2AF92",
"<. c #DAAD90",
"1. c #CDB294",
"2. c #C9B699",
"3. c #CBBB9D",
"4. c #D4B592",
"5. c #DDB491",
"6. c #D2B897",
"7. c #DDB994",
"8. c #DCBE9B",
"9. c #E1AC81",
"0. c #E1AE8C",
"q. c #E6B385",
"w. c #E9B183",
"e. c #EAB886",
"r. c #E5B48D",
"t. c #E9B68D",
"y. c #E7B98F",
"u. c #E9BA8C",
"i. c #E2B592",
"p. c #E5BB93",
"a. c #E8BD93",
"s. c #E4BF99",
"d. c #C2B3A5",
"f. c #C3BDA4",
"g. c #C4BDA9",
"h. c #D3B6A5",
"j. c #DBBDA6",
"k. c #D1B6A8",
"l. c #C6B9B3",
"z. c #CABFBB",
"x. c #E9C381",
"c. c #EECF82",
"v. c #E7C48D",
"b. c #EBC38B",
"n. c #EDCB8A",
"m. c #F3D682",
"M. c #E5C197",
"N. c #E9C196",
"B. c #E6C897",
"V. c #EDCB91",
"C. c #E5C39B",
"Z. c #E9C49B",
"A. c #E9C99D",
"S. c #EED593",
"D. c #C7C3AA",
"F. c #CCC1B6",
"G. c #CAC1BF",
"H. c #E9C7A1",
"J. c #E6CAA2",
"K. c #E9CBA3",
"L. c #EAD0A5",
"P. c #8AB4C7",
"I. c #8CBACC",
"U. c #9EBFD3",
"Y. c #ADBAC1",
"T. c #9FC2D5",
"R. c #96C2DD",
"E. c #B1C1C6",
"W. c #BDC6CE",
"Q. c #B7CADB",
"!. c #CBC2C2",
"~. c #CDC8C8",
"^. c #C2CCDB",
/* pixels */
"@.4.M.B.y.a.H.L.K.A.y.y.A.K.A.Z.a.s.K.J.5.*.i.H.H.H.H.H.H.L.L.L.",
"-.4.M.N.a.a.A.H.A.N.a.a.A.A.V.n.n.n.L.J.5.=.s.s.K.K.H.H.H.K.K.H.",
"4.7.y.a.Z.Z.Z.N.a.a.a.a.V.n.k l l m.S.B.5.=.i.Z.K.K.L.K.K.H.Z.a.",
"7.7.M.a.a.N.a.a.y.r.a.u.n.g s a u s c.v.=.0.i.s.A.K.K.L.K.A.s.a.",
"#.4.a.N.a.a.a.a.a.p.a.v.c.j t > # - y d :.:.0.t.a.N.Z.A.K.H.H.H.",
"1.4.Z.N.a.r.a.a.a.Z.s.b.h s > @ X + 6 y q.r.0.w.q.r.a.Z.A.A.H.H.",
"M.M.a.N.a.s.a.a.a.a.N.N.h u * o   O 6 d e.r.0.t.q.r.r.y.a.N.Z.N.",
"A.N.a.a.a.a.a.Z.a.a.p.v.f p * o . + 6 f u.q.r.t.t.t.y.a.a.N.a.N.",
"A.A.N.u.u.a.a.B.C.s.5.:.x.i , % o $ i d e.r.r.r.s.s.H.H.H.a.a.a.",
"N.N.N.a.a.i.a.M.s.7.:.:.r 7 : & $ : 8 f e.t.r.r.a.Z.K.K.H.H.Z.Z.",
"p.a.a.a.a.a.p.5.5.:.i.q.q 3 ; = = ; 5 r N.N.y.r.t.s.Z.H.K.H.H.H.",
":.r.u.u.s.p.5.=.=.0.r.q.1 1 9 2 2 9 4 e u.N.a.y.t.a.a.s.H.s.H.Z.",
"=.0.y.u.p.5.=.=.0.q.w.e 9 $.k.z.G.k.$.9 9.r.M.Z.a.s.t.t.t.t.a.t.",
"r.i.i.r.:.=.=.0.r.q.r e 9 <.G.^.Q.!.*.9 9 w 7.C.H.s.t.t.t.t.a.t.",
"Z.a.p.:.=.=.0.i.a.u.r q 0 =.!.^.^.!.<.0 0 w =.7.H.H.H.Z.a.t.s.a.",
"a.s.5.:.0.0.i.t.a.u.e q w <.!.^.^.~.i.e 4 4 $.<.C.K.H.H.H.s.Z.H.",
"i.i.r.<.i.i.r.a.N.e.q 4 $.h.~.^.^.~.j.0.4 < 2 =.7.C.C.C.J.J.K.K.",
"=.=.=.=.i.i.r.u.N.w.5 9 ,.l.W.Q.Q.~.F.4.4 3 9 %.:.5.7.s.8.C.K.K.",
"=.=.=.i.i.i.r.t.e.r q %.d.Y.U.U.R.T.E.g.q.5 e w.:.5.5.5.<.7.J.J.",
"i.0.5.=.i.r.r.e.u.e.q.,.X.P.J H H J I.o.:.w.w.e.a.5.5.5.=.5.7.C.",
"a.a.:.=.0.r.r.M.Z.Z.u.2.) D A F F A D ' 3.u.u.u.N.Z.Z.s.p.5.<.=.",
"Z.N.r.0.r.r.a.Z.A.A.s.Q v V B B B V Z N f.Z.a.a.N.Z.Z.Z.s.7.=.=.",
"a.a.r.r.r.a.A.J.J.C.:.Q b z C V V Z S P.D.Z.Z.a.y.r.t.u.s.s.p.5.",
"a.a.t.t.a.N.A.J.C.7.r.>.^ M z x G G D n D.A.s.a.t.q.r.t.a.s.a.i.",
"t.t.r.u.N.Z.C.8.5.=.=.4. ./ M M ] ] D c | 7.a.u.u.a.y.a.a.a.q.r.",
"a.a.a.a.N.Z.s.7.5.=.r.5.6.{ m m ..} c c [ 1.:.u.y.a.a.a.a.y.r.q.",
"Z.Z.Z.s.7.5.:.:.7.a.a.7.4.| ) _ f.f._ n / Q 5.u.y.u.y.v.M.y.r.r.",
"Z.s.s.a.7.:.:.5.C.N.N.y.7.| m _ D.3.] m /  .4.t.r.r.r.r.y.y.r.:.",
"p.i.i.5.7.i.s.p.N.N.a.p.8...m ) 2.6.( ` ~ | 4.i.=.%.=.=.:.:.%.%.",
":.r.i.7.a.s.a.a.a.a.a.s.8. .! ! -.4.W ~ [ E ,.i.=.=.=.<.:.:.;.5.",
"=.i.Z.A.N.a.y.y.a.a.a.a.7.>.K L *.;.R T T >.&.=.r.5.i.i.i.i.s.C.",
"=.i.H.L.N.u.r.r.a.M.M.v.;.+.L P *.:.Y I U O.&.=.i.i.i.i.i.s.J.K."
};
