/* XPM */
static char *result[] = {
/* columns rows colors chars-per-pixel */
"32 32 164 2 ",
"   c #FE0505",
".  c #FE0907",
"X  c #FD0D0A",
"o  c #FD140F",
"O  c #FB1511",
"+  c #FB1E16",
"@  c #FA1E1A",
"#  c #F6271E",
"$  c #FA231C",
"%  c #FB2A1F",
"&  c #FA2020",
"*  c #F62B26",
"=  c #FA2B22",
"-  c #F72B29",
";  c #F73026",
":  c #F83427",
">  c #F73529",
",  c #F9392D",
"<  c #F23934",
"1  c #F44135",
"2  c #F44C3D",
"3  c #F5503D",
"4  c #EF5545",
"5  c #F25443",
"6  c #F45A46",
"7  c #F2564A",
"8  c #F45E48",
"9  c #EF5959",
"0  c #F45B56",
"q  c #F3634E",
"w  c #EA6E59",
"e  c #F26751",
"r  c #EC735C",
"t  c #F17559",
"y  c #EA6462",
"u  c #E97765",
"i  c #E7716C",
"p  c #EA736C",
"a  c #F17E64",
"s  c #EE8364",
"d  c #EB836B",
"f  c #EE8A6A",
"g  c #F08063",
"h  c #EB906E",
"j  c #E68377",
"k  c #ED8E72",
"l  c #E59576",
"z  c #EB9475",
"x  c #EA9A76",
"c  c #E59579",
"v  c #E49B7D",
"b  c #EC9C7B",
"n  c #EAA27E",
"m  c #05A1FC",
"M  c #18A4F7",
"N  c #35ADF2",
"B  c #27B0F6",
"V  c #2BB1F5",
"C  c #43AEEE",
"Z  c #4CB8EF",
"A  c #54BAED",
"S  c #61B7E6",
"D  c #7CBDE1",
"F  c #67C6EF",
"G  c #6AC7EE",
"H  c #7DCCEB",
"J  c #DD9D9B",
"K  c #E39D80",
"L  c #E09995",
"P  c #C6AD8C",
"I  c #DDA686",
"U  c #DCAD8B",
"Y  c #CDB18E",
"T  c #DDB28E",
"R  c #DAAF91",
"E  c #DCA19F",
"W  c #D3B591",
"Q  c #DDB391",
"!  c #DDB994",
"~  c #DEB09B",
"^  c #DDB99E",
"/  c #E5A784",
"(  c #EBA680",
")  c #EAAB84",
"_  c #E3AE8B",
"`  c #EAAC8A",
"'  c #E5B48D",
"]  c #EAB38C",
"[  c #E7B98E",
"{  c #E9B98F",
"}  c #E4A992",
"|  c #E3B592",
" . c #EAB791",
".. c #E5BB93",
"X. c #E8BD93",
"o. c #E3BD9B",
"O. c #DAACA9",
"+. c #DBBAA2",
"@. c #D8B7AD",
"#. c #DEB7B5",
"$. c #D7BBB7",
"%. c #E2BDA0",
"&. c #E7B9B3",
"*. c #EBBAB2",
"=. c #E5C096",
"-. c #E9C196",
";. c #E5C39B",
":. c #E9C39B",
">. c #E9C99D",
",. c #DDC2A5",
"<. c #DCC4AD",
"1. c #DCCAAF",
"2. c #D6C5B6",
"3. c #DAC2B4",
"4. c #D6CAB7",
"5. c #D7C7BC",
"6. c #DBCBBB",
"7. c #D8D3BF",
"8. c #E1C5A3",
"9. c #E9C7A1",
"0. c #E5CAA2",
"q. c #E9CBA3",
"w. c #E1C5AA",
"e. c #E1C9AB",
"r. c #EAD1A5",
"t. c #E0CCB0",
"y. c #91C3DF",
"u. c #98C4DC",
"i. c #AEC9D7",
"p. c #A4C7D9",
"a. c #A6C8D8",
"s. c #AAC8D9",
"d. c #B1CAD7",
"f. c #88C2E1",
"g. c #84CDEA",
"h. c #96C9E1",
"j. c #ABD6E3",
"k. c #B1D7E3",
"l. c #BDDFE5",
"z. c #BFE0E5",
"x. c #D4C5C5",
"c. c #D6CDC3",
"v. c #D1CFCF",
"b. c #D6D1C4",
"n. c #D9D0C7",
"m. c #D4D3CD",
"M. c #DAD3CF",
"N. c #C3CED4",
"B. c #D1CFD0",
"V. c #C4D2D6",
"C. c #CDD1D3",
"Z. c #CDDCDC",
"A. c #D1D2D1",
"S. c #D9D3D0",
"D. c #D1DAD3",
"F. c #D0D8D8",
"G. c #E0CEC1",
"H. c #E4D5CD",
"J. c #EDD7CC",
"K. c #CDE1DE",
"L. c #D1E6DC",
"P. c #CDDFE0",
"I. c #CCE3E2",
"U. c #CBEAEA",
/* pixels */
"P W =.-.{ X.9.r.q.>...X.>.q.>.>.-.:.r.0.W U | :.q.q.9.%.q.q.r.r.",
"Y W =.-.X.-.>.9.>.-.[ X.>.:.] ( n ) 9.0.Q U o.o.q.q.9.9.q.q.q.q.",
"! ! ..-.-.:.-.-.X.X. .X.:.` g q 8 a  .0.Q U | ;.q.r.q.r.q.9.-.X.",
"W ! ..X.X.-.-.X.[ [ ..X.] f 3 = = 2 k ' U U | X.:.q.q.r.q.>.-.X.",
"Y W -.-.X. .X.X.X.X.X.) s 6 & . . $ 4 u K U ' [ ..-.:.>.q.q.9.>.",
"W W -.-.X.[ X.X.X.:.=.n e , O     O - 7 c | ' ' ] [ X.-.:.9.9.9.",
"o.=.X.X.X.X.X.-.X.X.o.K 7 - & @ @ & - 5 z ' ' ` ] ] [ { X.-.:.-.",
">.:.X.X.o.X.-.-.X.;.9.} p 9 9 0 0 0 9 p L ..| ] ' ' { { ..-.=.-.",
">.:.-.-.[ [ X.;.;.8.1.2.$.#.&.*.*.&.#.$.6.3.| ] ..-.>.9.>.X.-.X.",
"-.-.-.{ ....X.=.=.,.4.m.K.I.z.z.l.l.P.P.D.6.o. .X.:.q.q.9.:.o.:.",
"..[ { -.X.X...Q Q +.4.m.Z.k.g.G F H j.P.m.7.%.| X.X.:.q.q.9.9.9.",
"T [ [ { X.o.Q R Q +.6.m.C.p.A V B Z h.Z.S.t.w.%.| X.X.o.:.9.:.:.",
"U ' [ [ | Q U R +.3.G.S.C.h.N m m N f.V.S.G.6.w.-.X.| ]  . . .X.",
"T ' | ' T T U Q @.c.M.S.N.u.C M M N y.N.S.H.n.6.w.o.X.[  .[ ' [ ",
"-.=...' U U _ ^ 5.m.m.S.B.d.D S A D s.C.S.S.m.c.e.q.:.:.X.X.X.X.",
"-.X.Q T _ _ ' %.c.A.A.A.B.N.d.a.s.i.N.C.A.A.A.m.t.q.q.9.o.:.:.:.",
"| | U ' | | | %.c.B.A.A.A.A.S.M.M.M.B.B.A.C.A.c.<.o.;.;.>.>.0.r.",
"U U U U | | [ o.5.A.A.A.B.S.H.J.J.J.S.B.B.C.A.x.,.! ! o.o.8.q.q.",
"U U T Q } ' ' o.c.A.A.B.A.m.S.M.M.S.B.B.A.A.A.c.+.T Q Q Q ! ;.0.",
"Q ' T Q Q ' [ 8.m.F.A.B.B.A.A.A.A.A.A.B.A.A.Z.m.,.Q Q Q U T ! 8.",
"X.X.Q U ' ' ' ,.L.U.F.m.B.A.A.B.A.A.A.v.v.F.U.L.e.-.:.:.! Q Q U ",
":.X.' _ ) n z / b.I.Z.C.A.A.A.A.A.B.v.v.A.F.U.m.} b ] -.X.! T U ",
"X.X.| ` n s 5 0 L x.I.I.C.A.A.A.A.B.v.F.I.P.A.E 0 3 g n X.o.| Q ",
" .X.X.( f q % - y J m.P.F.A.A.A.A.A.B.F.I.A.O.p = $ 5 f ` o.X.| ",
" .X.[ n e , o O < i @.D.C.A.A.A.A.A.A.D.D.3.j 2 O X : e n X.[ ] ",
" .X.[ x 3 % . o 1 u ~ 7.b.m.b.c.c.b.b.b.7.^ d 2 O   $ 3 x ..' ' ",
":.:.:.n 3 +   % t ` ..;.8.,.e.<.,.e.0.1.8.o.) t $   + 3 x =.' ' ",
"-.:.:.n 4 $ o , x >.=.[ ..X.-.-.-.;.=.=.-.-.=.h > o + 2 x =.[ U ",
"| ..Q l 4 ; # 3 n -.-.-.:.:.{ [ [ { =.-.......l 2 # * 4 l T U U ",
"T | ../ r 6 6 t n -.-.[ :.-.{ [ [ [ -.-...' ' v w 4 4 w l W T T ",
"U | :.:.) x x n ' -.-.[ -.-.{ { [ [ [ -.! T U I K c c K _ ! =.;.",
"U | 9.r.>.{ [ [ [ -.-.-.[ [ { [ ' [ [ [ ! T I U Q o.o.| | ;.>.r."
};
